<svg xmlns="http://www.w3.org/2000/svg" xmlns:xlink="http://www.w3.org/1999/xlink" width="500" zoomAndPan="magnify" viewBox="0 0 375 374.999991" height="500" preserveAspectRatio="xMidYMid meet" version="1.0"><defs><g/><clipPath id="f0bd4f4db9"><path d="M 0 4.449219 L 370.550781 4.449219 L 370.550781 375 L 0 375 Z M 0 4.449219 " clip-rule="nonzero"/></clipPath><clipPath id="eeaf4d2135"><path d="M 185.277344 4.449219 C 82.949219 4.449219 0 87.398438 0 189.722656 C 0 292.050781 82.949219 375 185.277344 375 C 287.601562 375 370.550781 292.050781 370.550781 189.722656 C 370.550781 87.398438 287.601562 4.449219 185.277344 4.449219 Z M 185.277344 4.449219 " clip-rule="nonzero"/></clipPath></defs><g clip-path="url(#f0bd4f4db9)"><g clip-path="url(#eeaf4d2135)"><path fill="#f6f4f0" d="M 0 4.449219 L 370.550781 4.449219 L 370.550781 375 L 0 375 Z M 0 4.449219 " fill-opacity="1" fill-rule="nonzero"/></g></g><path stroke-linecap="butt" transform="matrix(2.490312, 0, 0, 2.490312, 84.609827, 44.041048)" fill="none" stroke-linejoin="miter" d="M 72.187378 39.64346 C 72.265807 40.53755 72.286198 42.04966 72.246984 44.176652 C 72.206201 46.283254 72.116792 48.399266 71.978757 50.526259 C 71.857976 52.634429 71.679158 54.135558 71.440734 55.029648 C 71.043884 57.156641 70.367826 59.402846 69.414131 61.768262 C 68.479258 64.113287 66.959305 66.389295 64.851135 68.596285 C 62.824532 70.723278 61.034783 72.254211 59.485028 73.187515 C 57.933703 74.122388 56.631783 74.867463 55.579267 75.424308 C 54.266366 76.159972 52.407601 76.795246 50.002969 77.3317 C 47.598338 77.869722 45.272136 78.275984 43.025932 78.555191 C 40.800118 78.83283 39.239383 78.972433 38.345293 78.972433 C 36.475547 78.972433 35.274016 79.320658 34.735993 80.015538 C 34.219931 80.711987 33.871706 81.913518 33.692888 83.623269 C 33.534462 84.677354 33.454464 86.078094 33.454464 87.828628 C 33.454464 89.577593 33.454464 91.147741 33.454464 92.53907 C 33.454464 93.513157 33.087417 93.999417 32.351754 93.999417 L 4.382427 93.999417 C 3.568335 93.999417 3.160505 93.513157 3.160505 92.53907 C 3.160505 92.53907 3.180896 91.564983 3.220111 89.616808 C 3.279717 87.648242 3.348734 85.243611 3.428731 82.401346 C 3.508729 79.559081 3.568335 76.756031 3.607549 73.992196 C 3.648333 71.209537 3.667155 68.924118 3.667155 67.13437 C 3.747153 60.296935 3.726761 53.439109 3.607549 46.560892 C 3.488337 39.684243 3.428731 32.776223 3.428731 25.838399 C 3.348734 23.154561 3.30952 20.472291 3.30952 17.788453 C 3.30952 17.390034 3.547943 17.192393 4.024791 17.192393 L 51.165286 17.192393 C 52.636613 17.192393 54.40597 17.46062 56.473357 17.997074 C 58.561135 18.513137 60.986157 19.826037 63.748424 21.932638 C 65.616602 23.403965 67.117731 25.203125 68.250245 27.330117 C 69.403151 29.436719 70.278417 31.593514 70.874477 33.798936 C 71.490929 35.985535 71.928562 37.933709 72.187378 39.64346 Z M 41.415001 40.507747 C 41.415001 39.932078 41.366375 39.196415 41.265986 38.302325 C 41.187557 37.408235 40.898939 36.622377 40.401699 35.94632 C 39.924852 35.25144 39.120171 34.903215 37.986088 34.903215 C 36.853574 34.903215 36.019091 35.270263 35.482637 36.005926 C 34.946183 36.721198 34.616781 37.507056 34.497569 38.361931 C 34.378357 39.216807 34.318751 39.892864 34.318751 40.388535 C 34.240322 41.124198 34.180716 42.327298 34.139933 43.997834 C 34.100719 45.666802 34.061504 47.337338 34.020721 49.006306 C 33.981507 50.675274 34.001898 51.829748 34.080327 52.465022 C 34.080327 53.042259 34.139933 53.796745 34.259145 54.731618 C 34.378357 55.664923 34.676387 56.519798 35.154804 57.294676 C 35.650475 58.071122 36.51633 58.458561 37.747664 58.458561 C 39.457415 58.458561 40.470717 57.851521 40.789138 56.63901 C 41.10756 55.407676 41.316181 54.422608 41.415001 53.686945 C 41.415001 52.872853 41.435393 51.530149 41.474607 49.661972 C 41.51539 47.793795 41.534213 45.964832 41.534213 44.176652 C 41.534213 42.386904 41.494999 41.164981 41.415001 40.507747 Z M 41.415001 40.507747 " stroke="#222222" stroke-width="9.16005" stroke-opacity="1" stroke-miterlimit="4"/><g fill="#ffffff" fill-opacity="1"><g transform="translate(84.609827, 278.130359)"><g><path d="M 179.75 -135.34375 C 179.945312 -133.113281 179.992188 -129.363281 179.890625 -124.09375 C 179.796875 -118.820312 179.59375 -113.546875 179.28125 -108.265625 C 178.976562 -102.992188 178.523438 -99.242188 177.921875 -97.015625 C 176.910156 -91.742188 175.238281 -86.164062 172.90625 -80.28125 C 170.570312 -74.40625 166.769531 -68.734375 161.5 -63.265625 C 156.425781 -57.992188 151.960938 -54.191406 148.109375 -51.859375 C 144.265625 -49.523438 141.023438 -47.648438 138.390625 -46.234375 C 135.140625 -44.398438 130.523438 -42.820312 124.546875 -41.5 C 118.566406 -40.1875 112.785156 -39.175781 107.203125 -38.46875 C 101.628906 -37.757812 97.726562 -37.40625 95.5 -37.40625 C 90.832031 -37.40625 87.835938 -36.539062 86.515625 -34.8125 C 85.203125 -33.09375 84.34375 -30.109375 83.9375 -25.859375 C 83.53125 -23.210938 83.328125 -19.707031 83.328125 -15.34375 C 83.328125 -10.988281 83.328125 -7.09375 83.328125 -3.65625 C 83.328125 -1.21875 82.414062 0 80.59375 0 L 10.953125 0 C 8.921875 0 7.90625 -1.21875 7.90625 -3.65625 C 7.90625 -3.65625 7.957031 -6.085938 8.0625 -10.953125 C 8.164062 -15.816406 8.316406 -21.796875 8.515625 -28.890625 C 8.710938 -35.984375 8.863281 -42.976562 8.96875 -49.875 C 9.070312 -56.769531 9.125 -62.445312 9.125 -66.90625 C 9.320312 -83.9375 9.269531 -101.019531 8.96875 -118.15625 C 8.664062 -135.289062 8.515625 -152.472656 8.515625 -169.703125 C 8.316406 -176.398438 8.21875 -183.09375 8.21875 -189.78125 C 8.21875 -190.789062 8.820312 -191.296875 10.03125 -191.296875 L 127.4375 -191.296875 C 131.082031 -191.296875 135.488281 -190.632812 140.65625 -189.3125 C 145.832031 -188 151.867188 -184.707031 158.765625 -179.4375 C 163.421875 -175.789062 167.164062 -171.332031 170 -166.0625 C 172.84375 -160.789062 175.023438 -155.414062 176.546875 -149.9375 C 178.066406 -144.46875 179.132812 -139.601562 179.75 -135.34375 Z M 103.109375 -133.21875 C 103.109375 -134.632812 103.003906 -136.457031 102.796875 -138.6875 C 102.597656 -140.914062 101.890625 -142.890625 100.671875 -144.609375 C 99.453125 -146.335938 97.425781 -147.203125 94.59375 -147.203125 C 91.75 -147.203125 89.664062 -146.289062 88.34375 -144.46875 C 87.03125 -142.644531 86.222656 -140.664062 85.921875 -138.53125 C 85.617188 -136.40625 85.46875 -134.734375 85.46875 -133.515625 C 85.257812 -131.691406 85.101562 -128.703125 85 -124.546875 C 84.90625 -120.390625 84.804688 -116.234375 84.703125 -112.078125 C 84.597656 -107.921875 84.648438 -105.03125 84.859375 -103.40625 C 84.859375 -101.988281 85.007812 -100.113281 85.3125 -97.78125 C 85.613281 -95.445312 86.375 -93.316406 87.59375 -91.390625 C 88.8125 -89.460938 90.941406 -88.5 93.984375 -88.5 C 98.234375 -88.5 100.765625 -90.019531 101.578125 -93.0625 C 102.390625 -96.101562 102.898438 -98.535156 103.109375 -100.359375 C 103.109375 -102.390625 103.15625 -105.734375 103.25 -110.390625 C 103.351562 -115.054688 103.40625 -119.617188 103.40625 -124.078125 C 103.40625 -128.546875 103.304688 -131.59375 103.109375 -133.21875 Z M 103.109375 -133.21875 "/></g></g></g></svg>