<svg xmlns="http://www.w3.org/2000/svg" xmlns:xlink="http://www.w3.org/1999/xlink" width="500" zoomAndPan="magnify" viewBox="0 0 375 374.999991" height="500" preserveAspectRatio="xMidYMid meet" version="1.0"><defs><g/><clipPath id="d6edbf5d39"><path d="M 103.988281 108.058594 L 271.238281 108.058594 L 271.238281 174 L 103.988281 174 Z M 103.988281 108.058594 " clip-rule="nonzero"/></clipPath><clipPath id="7e3820a0d7"><path d="M 103.988281 208 L 271.238281 208 L 271.238281 267.058594 L 103.988281 267.058594 Z M 103.988281 208 " clip-rule="nonzero"/></clipPath></defs><g clip-path="url(#d6edbf5d39)"><path fill="#010101" d="M 254.65625 161.019531 C 254.539062 160.65625 254.3125 160.382812 254.019531 160.179688 C 251.699219 161.679688 249.332031 162.769531 246.921875 163.472656 L 246.875 164.476562 C 246.875 164.476562 242.667969 164.292969 242.667969 164.292969 C 241.984375 164.359375 241.304688 164.382812 240.621094 164.382812 C 240.484375 164.382812 240.347656 164.382812 240.210938 164.382812 C 237.664062 164.589844 233.820312 165.226562 229.863281 166.976562 C 230.269531 167.703125 230.679688 168.453125 231.066406 169.203125 L 228.335938 169.203125 C 228.179688 168.792969 227.996094 168.382812 227.816406 167.976562 C 227.132812 168.339844 226.472656 168.75 225.789062 169.203125 L 219.648438 169.203125 C 226.585938 162.496094 235.390625 160.859375 240.097656 160.496094 C 240.28125 160.496094 240.4375 160.496094 240.621094 160.496094 C 241.257812 160.496094 241.894531 160.453125 242.507812 160.40625 C 242.691406 160.40625 242.804688 160.40625 242.828125 160.40625 L 243.214844 160.429688 L 243.214844 160.316406 C 248.105469 159.609375 252.878906 156.949219 257.453125 152.382812 C 266.664062 143.175781 266.753906 137.105469 266.753906 136.855469 L 266.753906 136.015625 L 246.238281 145.835938 C 245.078125 145.425781 239.324219 143.199219 235.820312 136.992188 C 233.613281 133.105469 233.296875 128.378906 234.886719 123.992188 C 239.871094 121.261719 255.335938 114.011719 256.019531 113.695312 L 256.976562 113.261719 L 256.085938 112.761719 C 255.882812 112.648438 251.175781 110.058594 244.941406 109.058594 C 239.074219 108.101562 230.65625 108.421875 223.835938 115.21875 C 218.808594 120.242188 215.894531 126.242188 215.417969 132.605469 L 215.394531 132.605469 L 215.394531 132.945312 C 215.351562 133.675781 215.328125 134.402344 215.351562 135.082031 C 215.121094 139.039062 213.78125 148.996094 206.296875 156.472656 L 193.582031 169.179688 L 162.601562 169.179688 C 168.675781 162.203125 177.636719 157.792969 187.621094 157.792969 C 191.195312 157.792969 194.652344 158.359375 197.882812 159.40625 L 203.566406 153.722656 C 210.027344 147.265625 211.253906 138.585938 211.484375 134.992188 C 211.460938 134.289062 211.484375 133.5625 211.527344 132.8125 L 211.527344 129.789062 C 206.933594 127.992188 202.132812 126.71875 197.222656 125.992188 L 196.492188 125.878906 L 196.472656 119.582031 C 196.472656 119.128906 196.289062 118.695312 195.96875 118.375 C 195.652344 118.058594 195.21875 117.875 194.765625 117.875 L 179.820312 117.945312 C 178.886719 117.945312 178.113281 118.71875 178.113281 119.648438 L 178.136719 125.945312 L 177.410156 126.058594 C 170.335938 127.152344 163.535156 129.402344 157.1875 132.71875 L 156.527344 133.0625 L 152.800781 127.96875 C 152.253906 127.21875 151.183594 127.039062 150.410156 127.605469 L 138.355469 136.425781 C 137.605469 136.96875 137.421875 138.039062 137.992188 138.8125 L 141.722656 143.902344 L 141.199219 144.425781 C 136.125 149.496094 131.917969 155.292969 128.734375 161.703125 L 128.414062 162.359375 L 122.410156 160.429688 C 121.523438 160.132812 120.546875 160.632812 120.273438 161.519531 L 117.839844 169.132812 L 103.988281 169.132812 L 103.988281 173.429688 L 271.238281 173.429688 L 271.238281 169.132812 L 257.363281 169.132812 Z M 144.199219 169.226562 C 147.5 162.65625 152.253906 156.949219 158.03125 152.496094 C 153.390625 157.109375 149.59375 162.792969 146.929688 169.226562 Z M 240.960938 146.039062 C 240.960938 146.039062 227.382812 143.722656 231.886719 126.652344 C 231.886719 126.652344 230.386719 140.378906 240.960938 146.039062 Z M 251.605469 114.058594 L 233.707031 122.648438 C 233.683594 122.671875 239.4375 116.761719 251.605469 114.058594 Z M 225.222656 116.742188 C 229.519531 112.445312 234.546875 110.964844 239.003906 110.761719 C 235.070312 111.332031 230.816406 112.96875 227.042969 116.742188 C 222.332031 121.445312 219.582031 127.015625 219.082031 132.832031 C 219.011719 133.492188 218.988281 134.152344 218.988281 134.789062 C 218.988281 141.289062 221.742188 146.359375 224.335938 148.949219 C 229.679688 154.292969 235.160156 157.019531 240.621094 157.042969 C 241.371094 157.042969 242.121094 156.996094 242.851562 156.90625 C 247.445312 156.3125 251.992188 153.792969 256.382812 149.382812 C 261.523438 144.246094 263.640625 140.242188 264.503906 137.835938 C 264.070312 139.902344 262.410156 144.585938 256.085938 150.90625 C 251.699219 155.292969 247.082031 157.769531 242.394531 158.269531 C 241.644531 158.359375 240.871094 158.382812 240.121094 158.359375 C 234.523438 158.199219 228.839844 155.269531 223.242188 149.675781 C 220.535156 146.972656 217.601562 141.722656 217.441406 135.0625 C 217.417969 134.402344 217.441406 133.742188 217.488281 133.0625 C 217.828125 127.082031 220.511719 121.46875 225.222656 116.742188 Z M 201.269531 169.226562 L 211.300781 159.203125 C 212.621094 157.882812 214.894531 157.996094 216.375 159.472656 C 217.851562 160.953125 217.964844 163.222656 216.644531 164.542969 L 211.9375 169.25 L 201.269531 169.25 Z M 201.269531 169.226562 " fill-opacity="1" fill-rule="nonzero"/></g><g clip-path="url(#7e3820a0d7)"><path fill="#010101" d="M 103.988281 208.4375 L 103.988281 212.730469 L 117.863281 212.730469 L 120.113281 219.527344 C 124.070312 217.003906 128.1875 215.734375 132.394531 215.734375 C 133.238281 215.734375 134.078125 215.777344 134.921875 215.890625 C 137.355469 215.347656 140.3125 214.390625 143.246094 212.730469 L 149.910156 212.730469 C 144.953125 217.074219 139.195312 218.984375 135.058594 219.824219 C 128.800781 218.847656 122.730469 221.277344 116.953125 227.03125 C 108.511719 235.460938 108.421875 241.007812 108.421875 241.234375 L 108.421875 242.078125 L 127.210938 233.074219 C 128.300781 233.460938 133.511719 235.507812 136.671875 241.121094 C 138.671875 244.667969 138.96875 248.964844 137.535156 252.941406 C 132.964844 255.441406 118.863281 262.058594 118.25 262.332031 L 118.316406 262.488281 L 118.25 262.332031 L 117.316406 262.761719 L 118.203125 263.261719 C 118.25 263.285156 122.636719 265.71875 128.394531 266.648438 C 129.734375 266.855469 131.214844 267.011719 132.78125 267.011719 C 137.515625 267.011719 143.019531 265.695312 147.703125 261.011719 C 154.140625 254.578125 155.484375 247.828125 155.460938 243.28125 C 156.144531 238.007812 158.234375 230.484375 164.285156 224.460938 L 176.046875 212.710938 L 212.597656 212.710938 C 206.523438 219.6875 197.5625 224.097656 187.578125 224.097656 C 182.480469 224.097656 177.660156 222.9375 173.339844 220.890625 L 167.039062 227.1875 C 161.851562 232.371094 160.007812 238.894531 159.351562 243.554688 C 159.351562 245.394531 159.144531 247.53125 158.554688 249.851562 C 164.671875 252.875 171.199219 254.898438 177.933594 255.898438 L 178.660156 256.011719 L 178.683594 262.308594 C 178.683594 262.761719 178.867188 263.195312 179.183594 263.511719 C 179.503906 263.832031 179.933594 264.011719 180.390625 264.011719 L 195.332031 263.945312 C 195.789062 263.945312 196.222656 263.761719 196.539062 263.445312 C 196.859375 263.125 197.039062 262.695312 197.039062 262.238281 L 197.015625 255.941406 L 197.746094 255.828125 C 204.820312 254.738281 211.621094 252.488281 217.964844 249.167969 L 218.625 248.828125 L 222.355469 253.898438 C 222.628906 254.261719 223.015625 254.511719 223.46875 254.578125 C 223.925781 254.648438 224.378906 254.535156 224.742188 254.261719 L 236.800781 245.441406 C 237.550781 244.894531 237.730469 243.828125 237.164062 243.054688 L 233.433594 237.964844 L 233.957031 237.441406 C 239.027344 232.371094 243.238281 226.574219 246.421875 220.164062 L 246.738281 219.503906 L 252.742188 221.4375 C 253.632812 221.734375 254.609375 221.234375 254.882812 220.347656 L 257.316406 212.730469 L 271.214844 212.730469 L 271.214844 208.4375 Z M 131.941406 232.597656 C 131.941406 232.597656 144.65625 234.757812 140.449219 250.78125 C 140.449219 250.78125 141.859375 237.894531 131.941406 232.597656 Z M 121.976562 262.582031 L 138.765625 254.511719 C 138.765625 254.511719 133.375 260.035156 121.976562 262.582031 Z M 153.980469 244.78125 C 153.640625 250.375 151.117188 255.648438 146.703125 260.058594 C 142.65625 264.101562 137.96875 265.46875 133.785156 265.671875 C 137.46875 265.148438 141.472656 263.601562 145.019531 260.058594 C 149.433594 255.648438 152.027344 250.417969 152.480469 244.964844 C 152.527344 244.351562 152.570312 243.714844 152.546875 243.121094 C 152.546875 237.03125 149.957031 232.257812 147.542969 229.847656 C 142.519531 224.824219 137.378906 222.277344 132.257812 222.257812 C 131.554688 222.257812 130.871094 222.300781 130.167969 222.390625 C 125.867188 222.9375 121.589844 225.324219 117.476562 229.4375 C 112.652344 234.257812 110.671875 238.007812 109.855469 240.28125 C 110.265625 238.347656 111.832031 233.960938 117.746094 228.03125 C 121.863281 223.914062 126.1875 221.574219 130.578125 221.121094 C 131.28125 221.050781 131.988281 221.007812 132.714844 221.027344 C 137.96875 221.1875 143.292969 223.914062 148.546875 229.1875 C 151.070312 231.710938 153.84375 236.644531 154.003906 242.894531 C 154.027344 243.507812 154.027344 244.144531 153.980469 244.78125 Z M 161.851562 219.277344 C 160.53125 220.597656 158.257812 220.484375 156.78125 219.003906 C 155.300781 217.527344 155.1875 215.253906 156.507812 213.9375 L 157.710938 212.730469 L 168.378906 212.730469 Z M 217.214844 229.460938 C 221.855469 224.847656 225.652344 219.164062 228.316406 212.730469 L 231.042969 212.730469 C 227.746094 219.300781 222.992188 225.007812 217.214844 229.460938 Z M 217.214844 229.460938 " fill-opacity="1" fill-rule="nonzero"/></g><path fill="#000000" d="M 237.53125 215.996094 C 238.007812 216.304688 238.414062 216.6875 238.742188 217.148438 C 239.070312 217.609375 239.300781 218.117188 239.433594 218.667969 C 239.566406 219.21875 239.589844 219.777344 239.507812 220.335938 C 239.421875 220.898438 239.238281 221.421875 238.949219 221.910156 C 238 223.289062 236.992188 224.625 235.933594 225.917969 C 234.871094 227.210938 233.761719 228.460938 232.597656 229.664062 C 231.433594 230.867188 230.222656 232.019531 228.964844 233.121094 C 227.707031 234.226562 226.40625 235.273438 225.0625 236.269531 C 223.714844 237.265625 222.332031 238.203125 220.910156 239.085938 C 219.488281 239.96875 218.03125 240.789062 216.542969 241.550781 C 215.054688 242.3125 213.535156 243.011719 211.988281 243.648438 C 210.441406 244.285156 208.871094 244.859375 207.273438 245.367188 C 205.679688 245.875 204.066406 246.316406 202.4375 246.6875 C 200.808594 247.0625 199.164062 247.371094 197.507812 247.609375 C 195.851562 247.847656 194.1875 248.019531 192.519531 248.121094 C 190.847656 248.222656 189.175781 248.257812 187.503906 248.222656 C 185.832031 248.1875 184.164062 248.082031 182.5 247.910156 C 180.835938 247.738281 179.179688 247.496094 177.535156 247.1875 C 175.890625 246.878906 174.261719 246.5 172.648438 246.058594 C 171.035156 245.613281 169.441406 245.105469 167.871094 244.53125 C 167.355469 244.296875 166.898438 243.976562 166.507812 243.570312 C 166.113281 243.160156 165.8125 242.691406 165.601562 242.164062 C 165.390625 241.636719 165.285156 241.09375 165.289062 240.523438 C 165.289062 239.957031 165.398438 239.410156 165.609375 238.886719 L 169.203125 230.898438 C 169.308594 230.621094 169.445312 230.359375 169.605469 230.109375 C 169.765625 229.859375 169.949219 229.628906 170.160156 229.417969 C 170.367188 229.207031 170.59375 229.019531 170.839844 228.851562 C 171.085938 228.6875 171.347656 228.546875 171.621094 228.4375 C 171.898438 228.324219 172.179688 228.238281 172.472656 228.183594 C 172.761719 228.128906 173.058594 228.105469 173.355469 228.109375 C 173.652344 228.113281 173.945312 228.148438 174.234375 228.214844 C 174.523438 228.277344 174.804688 228.371094 175.074219 228.492188 C 176.15625 228.855469 177.25 229.171875 178.355469 229.445312 C 179.460938 229.71875 180.578125 229.949219 181.703125 230.136719 C 182.828125 230.320312 183.957031 230.460938 185.089844 230.558594 C 186.226562 230.65625 187.363281 230.710938 188.503906 230.71875 C 189.644531 230.726562 190.78125 230.6875 191.917969 230.605469 C 193.054688 230.523438 194.1875 230.398438 195.3125 230.226562 C 196.441406 230.054688 197.558594 229.839844 198.667969 229.582031 C 199.777344 229.320312 200.875 229.019531 201.960938 228.671875 C 203.050781 228.328125 204.121094 227.941406 205.175781 227.511719 C 206.230469 227.082031 207.265625 226.609375 208.285156 226.097656 C 209.304688 225.585938 210.300781 225.035156 211.277344 224.445312 C 212.25 223.855469 213.203125 223.226562 214.128906 222.5625 C 215.050781 221.898438 215.949219 221.199219 216.820312 220.460938 C 217.691406 219.726562 218.53125 218.957031 219.339844 218.15625 C 220.152344 217.355469 220.929688 216.523438 221.671875 215.660156 C 222.417969 214.796875 223.128906 213.90625 223.800781 212.984375 C 223.953125 212.730469 224.125 212.492188 224.324219 212.273438 C 224.523438 212.050781 224.746094 211.855469 224.984375 211.679688 C 225.222656 211.503906 225.476562 211.355469 225.746094 211.230469 C 226.015625 211.105469 226.296875 211.011719 226.585938 210.945312 C 226.875 210.875 227.167969 210.839844 227.464844 210.832031 C 227.761719 210.824219 228.054688 210.847656 228.347656 210.898438 C 228.640625 210.953125 228.921875 211.03125 229.199219 211.144531 C 229.472656 211.253906 229.734375 211.390625 229.984375 211.554688 Z M 237.53125 215.996094 " fill-opacity="1" fill-rule="nonzero"/><g fill="#ffffff" fill-opacity="1"><g transform="translate(166.097451, 238.533905)"><g><path d="M 3.890625 1.609375 C 3.398438 1.429688 2.976562 1.175781 2.625 0.84375 C 2.28125 0.507812 2.003906 0.125 1.796875 -0.3125 C 1.597656 -0.75 1.484375 -1.207031 1.453125 -1.6875 C 1.429688 -2.175781 1.507812 -2.65625 1.6875 -3.125 C 1.863281 -3.613281 2.117188 -4.03125 2.453125 -4.375 C 2.785156 -4.726562 3.171875 -5.003906 3.609375 -5.203125 C 4.046875 -5.410156 4.503906 -5.523438 4.984375 -5.546875 C 5.460938 -5.566406 5.941406 -5.488281 6.421875 -5.3125 C 6.710938 -5.207031 6.988281 -5.0625 7.25 -4.875 C 7.507812 -4.695312 7.742188 -4.5 7.953125 -4.28125 C 8.160156 -4.070312 8.320312 -3.851562 8.4375 -3.625 C 8.457031 -3.5625 8.460938 -3.503906 8.453125 -3.453125 C 8.441406 -3.398438 8.414062 -3.351562 8.375 -3.3125 L 7.375 -2.59375 C 7.320312 -2.550781 7.265625 -2.535156 7.203125 -2.546875 C 7.140625 -2.554688 7.085938 -2.59375 7.046875 -2.65625 C 6.921875 -2.875 6.757812 -3.070312 6.5625 -3.25 C 6.375 -3.4375 6.140625 -3.578125 5.859375 -3.671875 C 5.523438 -3.796875 5.191406 -3.828125 4.859375 -3.765625 C 4.535156 -3.703125 4.238281 -3.5625 3.96875 -3.34375 C 3.707031 -3.132812 3.515625 -2.859375 3.390625 -2.515625 C 3.296875 -2.265625 3.253906 -2.003906 3.265625 -1.734375 C 3.285156 -1.472656 3.347656 -1.226562 3.453125 -1 C 3.554688 -0.78125 3.695312 -0.582031 3.875 -0.40625 C 4.0625 -0.226562 4.28125 -0.09375 4.53125 0 C 4.800781 0.09375 5.070312 0.132812 5.34375 0.125 C 5.613281 0.113281 5.859375 0.0664062 6.078125 -0.015625 C 6.128906 -0.015625 6.179688 -0.00390625 6.234375 0.015625 C 6.285156 0.046875 6.320312 0.09375 6.34375 0.15625 L 6.671875 1.3125 C 6.671875 1.363281 6.65625 1.421875 6.625 1.484375 C 6.601562 1.546875 6.5625 1.585938 6.5 1.609375 C 6.238281 1.703125 5.953125 1.765625 5.640625 1.796875 C 5.328125 1.828125 5.019531 1.828125 4.71875 1.796875 C 4.425781 1.765625 4.148438 1.703125 3.890625 1.609375 Z M 3.890625 1.609375 "/></g></g></g><g fill="#ffffff" fill-opacity="1"><g transform="translate(174.047909, 241.424283)"><g><path d="M 8.78125 -5.5 C 8.84375 -5.488281 8.890625 -5.457031 8.921875 -5.40625 C 8.960938 -5.363281 8.972656 -5.3125 8.953125 -5.25 L 7.734375 1.234375 C 7.710938 1.296875 7.675781 1.34375 7.625 1.375 C 7.582031 1.414062 7.53125 1.429688 7.46875 1.421875 L 6.71875 1.28125 C 6.613281 1.257812 6.550781 1.195312 6.53125 1.09375 L 6.40625 0.09375 C 6.050781 0.4375 5.648438 0.675781 5.203125 0.8125 C 4.753906 0.945312 4.28125 0.96875 3.78125 0.875 C 3.300781 0.789062 2.878906 0.617188 2.515625 0.359375 C 2.148438 0.0976562 1.847656 -0.21875 1.609375 -0.59375 C 1.367188 -0.976562 1.207031 -1.40625 1.125 -1.875 C 1.039062 -2.351562 1.046875 -2.847656 1.140625 -3.359375 C 1.234375 -3.878906 1.40625 -4.347656 1.65625 -4.765625 C 1.914062 -5.179688 2.226562 -5.523438 2.59375 -5.796875 C 2.957031 -6.066406 3.351562 -6.253906 3.78125 -6.359375 C 4.207031 -6.460938 4.660156 -6.46875 5.140625 -6.375 C 5.640625 -6.28125 6.070312 -6.082031 6.4375 -5.78125 C 6.8125 -5.488281 7.101562 -5.117188 7.3125 -4.671875 L 7.78125 -5.546875 C 7.84375 -5.628906 7.925781 -5.660156 8.03125 -5.640625 Z M 4.421875 -0.75 C 4.691406 -0.695312 4.945312 -0.703125 5.1875 -0.765625 C 5.4375 -0.828125 5.664062 -0.925781 5.875 -1.0625 C 6.09375 -1.195312 6.269531 -1.375 6.40625 -1.59375 C 6.550781 -1.8125 6.648438 -2.050781 6.703125 -2.3125 C 6.753906 -2.59375 6.75 -2.859375 6.6875 -3.109375 C 6.632812 -3.359375 6.535156 -3.585938 6.390625 -3.796875 C 6.242188 -4.003906 6.0625 -4.175781 5.84375 -4.3125 C 5.632812 -4.457031 5.394531 -4.554688 5.125 -4.609375 C 4.875 -4.660156 4.628906 -4.65625 4.390625 -4.59375 C 4.148438 -4.539062 3.925781 -4.441406 3.71875 -4.296875 C 3.507812 -4.160156 3.328125 -3.984375 3.171875 -3.765625 C 3.023438 -3.554688 2.925781 -3.3125 2.875 -3.03125 C 2.820312 -2.769531 2.828125 -2.507812 2.890625 -2.25 C 2.953125 -2 3.050781 -1.769531 3.1875 -1.5625 C 3.332031 -1.363281 3.507812 -1.191406 3.71875 -1.046875 C 3.925781 -0.898438 4.160156 -0.800781 4.421875 -0.75 Z M 4.421875 -0.75 "/></g></g></g><g fill="#ffffff" fill-opacity="1"><g transform="translate(183.888729, 243.104457)"><g><path d="M 6.4375 -6.390625 C 6.476562 -6.359375 6.503906 -6.3125 6.515625 -6.25 C 6.523438 -6.1875 6.507812 -6.125 6.46875 -6.0625 L 5.875 -5.15625 C 5.820312 -5.09375 5.765625 -5.050781 5.703125 -5.03125 C 5.648438 -5.019531 5.597656 -5.046875 5.546875 -5.109375 C 5.390625 -5.242188 5.21875 -5.351562 5.03125 -5.4375 C 4.851562 -5.519531 4.6875 -5.5625 4.53125 -5.5625 C 4.207031 -5.570312 3.914062 -5.5 3.65625 -5.34375 C 3.394531 -5.1875 3.1875 -4.96875 3.03125 -4.6875 C 2.882812 -4.414062 2.804688 -4.113281 2.796875 -3.78125 L 2.6875 -0.125 C 2.6875 0.0078125 2.613281 0.0703125 2.46875 0.0625 L 1.140625 0.03125 C 0.992188 0.03125 0.921875 -0.0351562 0.921875 -0.171875 L 1.109375 -6.796875 C 1.109375 -6.859375 1.128906 -6.910156 1.171875 -6.953125 C 1.210938 -6.992188 1.265625 -7.015625 1.328125 -7.015625 L 2.109375 -7 C 2.160156 -7 2.207031 -6.984375 2.25 -6.953125 C 2.289062 -6.921875 2.320312 -6.882812 2.34375 -6.84375 L 2.609375 -5.828125 C 2.773438 -6.078125 2.972656 -6.296875 3.203125 -6.484375 C 3.441406 -6.679688 3.695312 -6.832031 3.96875 -6.9375 C 4.238281 -7.050781 4.515625 -7.101562 4.796875 -7.09375 C 5.066406 -7.082031 5.347656 -7.015625 5.640625 -6.890625 C 5.941406 -6.765625 6.207031 -6.597656 6.4375 -6.390625 Z M 6.4375 -6.390625 "/></g></g></g><g fill="#ffffff" fill-opacity="1"><g transform="translate(191.614227, 243.184423)"><g/></g></g><g fill="#ffffff" fill-opacity="1"><g transform="translate(197.150875, 242.673178)"><g><path d="M 4.75 -7.734375 C 4.789062 -7.710938 4.820312 -7.671875 4.84375 -7.609375 C 4.875 -7.546875 4.875 -7.484375 4.84375 -7.421875 L 4.5 -6.390625 C 4.457031 -6.328125 4.410156 -6.28125 4.359375 -6.25 C 4.304688 -6.226562 4.242188 -6.238281 4.171875 -6.28125 C 4.003906 -6.363281 3.816406 -6.425781 3.609375 -6.46875 C 3.410156 -6.507812 3.238281 -6.515625 3.09375 -6.484375 C 2.769531 -6.410156 2.5 -6.265625 2.28125 -6.046875 C 2.070312 -5.835938 1.921875 -5.582031 1.828125 -5.28125 C 1.742188 -4.976562 1.738281 -4.660156 1.8125 -4.328125 L 2.578125 -0.765625 C 2.609375 -0.628906 2.550781 -0.546875 2.40625 -0.515625 L 1.109375 -0.234375 C 0.972656 -0.203125 0.890625 -0.253906 0.859375 -0.390625 L -0.53125 -6.859375 C -0.539062 -6.921875 -0.53125 -6.976562 -0.5 -7.03125 C -0.46875 -7.082031 -0.425781 -7.113281 -0.375 -7.125 L 0.390625 -7.296875 C 0.441406 -7.304688 0.488281 -7.300781 0.53125 -7.28125 C 0.582031 -7.269531 0.625 -7.242188 0.65625 -7.203125 L 1.171875 -6.28125 C 1.265625 -6.5625 1.398438 -6.820312 1.578125 -7.0625 C 1.765625 -7.300781 1.972656 -7.503906 2.203125 -7.671875 C 2.441406 -7.847656 2.695312 -7.96875 2.96875 -8.03125 C 3.238281 -8.082031 3.535156 -8.078125 3.859375 -8.015625 C 4.179688 -7.960938 4.476562 -7.867188 4.75 -7.734375 Z M 4.75 -7.734375 "/></g></g></g><g fill="#ffffff" fill-opacity="1"><g transform="translate(204.829162, 240.988142)"><g><path d="M 5.78125 -6.34375 C 5.84375 -6.15625 5.867188 -5.960938 5.859375 -5.765625 C 5.847656 -5.578125 5.796875 -5.40625 5.703125 -5.25 C 5.609375 -5.09375 5.476562 -4.984375 5.3125 -4.921875 L 1.28125 -3.375 C 1.4375 -3.1875 1.632812 -3.039062 1.875 -2.9375 C 2.113281 -2.832031 2.367188 -2.78125 2.640625 -2.78125 C 2.921875 -2.78125 3.203125 -2.832031 3.484375 -2.9375 C 3.597656 -2.988281 3.722656 -3.0625 3.859375 -3.15625 C 3.992188 -3.257812 4.128906 -3.378906 4.265625 -3.515625 C 4.398438 -3.648438 4.515625 -3.789062 4.609375 -3.9375 C 4.640625 -4 4.6875 -4.035156 4.75 -4.046875 C 4.820312 -4.054688 4.882812 -4.046875 4.9375 -4.015625 L 5.9375 -3.40625 C 5.988281 -3.363281 6.019531 -3.3125 6.03125 -3.25 C 6.050781 -3.195312 6.050781 -3.132812 6.03125 -3.0625 C 5.90625 -2.832031 5.726562 -2.601562 5.5 -2.375 C 5.28125 -2.15625 5.039062 -1.953125 4.78125 -1.765625 C 4.519531 -1.585938 4.265625 -1.453125 4.015625 -1.359375 C 3.523438 -1.171875 3.035156 -1.082031 2.546875 -1.09375 C 2.054688 -1.101562 1.585938 -1.203125 1.140625 -1.390625 C 0.703125 -1.585938 0.316406 -1.859375 -0.015625 -2.203125 C -0.347656 -2.554688 -0.601562 -2.972656 -0.78125 -3.453125 C -0.96875 -3.941406 -1.054688 -4.425781 -1.046875 -4.90625 C -1.035156 -5.382812 -0.929688 -5.84375 -0.734375 -6.28125 C -0.546875 -6.71875 -0.28125 -7.101562 0.0625 -7.4375 C 0.40625 -7.769531 0.816406 -8.03125 1.296875 -8.21875 C 1.753906 -8.394531 2.210938 -8.476562 2.671875 -8.46875 C 3.128906 -8.46875 3.5625 -8.378906 3.96875 -8.203125 C 4.375 -8.035156 4.734375 -7.789062 5.046875 -7.46875 C 5.367188 -7.15625 5.613281 -6.78125 5.78125 -6.34375 Z M 1.859375 -6.65625 C 1.597656 -6.5625 1.375 -6.421875 1.1875 -6.234375 C 1.007812 -6.054688 0.875 -5.84375 0.78125 -5.59375 C 0.695312 -5.351562 0.664062 -5.101562 0.6875 -4.84375 L 3.96875 -6.109375 C 3.8125 -6.316406 3.617188 -6.476562 3.390625 -6.59375 C 3.160156 -6.71875 2.914062 -6.785156 2.65625 -6.796875 C 2.394531 -6.804688 2.128906 -6.757812 1.859375 -6.65625 Z M 1.859375 -6.65625 "/></g></g></g><g fill="#ffffff" fill-opacity="1"><g transform="translate(213.602531, 237.536226)"><g><path d="M 0.5 -8.71875 C 0.90625 -8.96875 1.332031 -9.117188 1.78125 -9.171875 C 2.226562 -9.234375 2.671875 -9.195312 3.109375 -9.0625 C 3.546875 -8.9375 3.953125 -8.722656 4.328125 -8.421875 C 4.703125 -8.117188 5.03125 -7.734375 5.3125 -7.265625 C 5.570312 -6.816406 5.742188 -6.351562 5.828125 -5.875 C 5.921875 -5.40625 5.914062 -4.953125 5.8125 -4.515625 C 5.71875 -4.078125 5.546875 -3.675781 5.296875 -3.3125 C 5.046875 -2.945312 4.71875 -2.640625 4.3125 -2.390625 C 3.914062 -2.160156 3.507812 -2.019531 3.09375 -1.96875 C 2.675781 -1.925781 2.269531 -1.96875 1.875 -2.09375 L 3.59375 0.765625 C 3.675781 0.898438 3.660156 1.003906 3.546875 1.078125 L 2.40625 1.765625 C 2.28125 1.847656 2.175781 1.820312 2.09375 1.6875 L -2.71875 -6.328125 C -2.757812 -6.390625 -2.773438 -6.445312 -2.765625 -6.5 C -2.753906 -6.550781 -2.71875 -6.597656 -2.65625 -6.640625 L -2 -7.03125 C -1.945312 -7.0625 -1.894531 -7.078125 -1.84375 -7.078125 C -1.789062 -7.078125 -1.75 -7.0625 -1.71875 -7.03125 L -0.9375 -6.34375 C -0.90625 -6.832031 -0.769531 -7.28125 -0.53125 -7.6875 C -0.289062 -8.101562 0.0507812 -8.445312 0.5 -8.71875 Z M 3.140625 -3.703125 C 3.359375 -3.835938 3.539062 -4.003906 3.6875 -4.203125 C 3.832031 -4.410156 3.9375 -4.632812 4 -4.875 C 4.0625 -5.125 4.070312 -5.378906 4.03125 -5.640625 C 4 -5.898438 3.910156 -6.144531 3.765625 -6.375 C 3.628906 -6.601562 3.457031 -6.796875 3.25 -6.953125 C 3.039062 -7.109375 2.8125 -7.210938 2.5625 -7.265625 C 2.320312 -7.328125 2.070312 -7.34375 1.8125 -7.3125 C 1.5625 -7.28125 1.328125 -7.195312 1.109375 -7.0625 C 0.878906 -6.925781 0.691406 -6.753906 0.546875 -6.546875 C 0.398438 -6.335938 0.289062 -6.109375 0.21875 -5.859375 C 0.15625 -5.617188 0.140625 -5.363281 0.171875 -5.09375 C 0.210938 -4.832031 0.300781 -4.585938 0.4375 -4.359375 C 0.582031 -4.128906 0.757812 -3.9375 0.96875 -3.78125 C 1.175781 -3.632812 1.40625 -3.53125 1.65625 -3.46875 C 1.90625 -3.414062 2.15625 -3.40625 2.40625 -3.4375 C 2.664062 -3.476562 2.910156 -3.566406 3.140625 -3.703125 Z M 3.140625 -3.703125 "/></g></g></g><g fill="#ffffff" fill-opacity="1"><g transform="translate(222.198901, 232.233248)"><g><path d="M 1.0625 -10.328125 C 1.101562 -10.367188 1.148438 -10.382812 1.203125 -10.375 C 1.265625 -10.375 1.316406 -10.347656 1.359375 -10.296875 L 5.734375 -5.34375 C 5.773438 -5.289062 5.789062 -5.234375 5.78125 -5.171875 C 5.78125 -5.117188 5.757812 -5.070312 5.71875 -5.03125 L 5.140625 -4.515625 C 5.054688 -4.441406 4.96875 -4.425781 4.875 -4.46875 L 4.015625 -5 C 4.066406 -4.507812 4.007812 -4.039062 3.84375 -3.59375 C 3.675781 -3.15625 3.398438 -2.769531 3.015625 -2.4375 C 2.660156 -2.113281 2.265625 -1.882812 1.828125 -1.75 C 1.390625 -1.625 0.945312 -1.582031 0.5 -1.625 C 0.0507812 -1.675781 -0.378906 -1.8125 -0.796875 -2.03125 C -1.222656 -2.257812 -1.609375 -2.570312 -1.953125 -2.96875 C -2.296875 -3.363281 -2.554688 -3.785156 -2.734375 -4.234375 C -2.910156 -4.679688 -2.992188 -5.132812 -2.984375 -5.59375 C -2.972656 -6.050781 -2.875 -6.484375 -2.6875 -6.890625 C -2.5 -7.296875 -2.226562 -7.65625 -1.875 -7.96875 C -1.488281 -8.3125 -1.0625 -8.535156 -0.59375 -8.640625 C -0.132812 -8.753906 0.328125 -8.753906 0.796875 -8.640625 L 0.40625 -9.546875 C 0.375 -9.648438 0.398438 -9.738281 0.484375 -9.8125 Z M 2.125 -3.953125 C 2.320312 -4.128906 2.472656 -4.332031 2.578125 -4.5625 C 2.691406 -4.800781 2.757812 -5.046875 2.78125 -5.296875 C 2.800781 -5.554688 2.769531 -5.800781 2.6875 -6.03125 C 2.613281 -6.269531 2.484375 -6.492188 2.296875 -6.703125 C 2.117188 -6.910156 1.910156 -7.070312 1.671875 -7.1875 C 1.429688 -7.300781 1.179688 -7.363281 0.921875 -7.375 C 0.671875 -7.382812 0.425781 -7.347656 0.1875 -7.265625 C -0.0507812 -7.179688 -0.273438 -7.050781 -0.484375 -6.875 C -0.679688 -6.707031 -0.832031 -6.507812 -0.9375 -6.28125 C -1.039062 -6.050781 -1.097656 -5.8125 -1.109375 -5.5625 C -1.128906 -5.320312 -1.097656 -5.078125 -1.015625 -4.828125 C -0.929688 -4.578125 -0.800781 -4.347656 -0.625 -4.140625 C -0.4375 -3.929688 -0.226562 -3.773438 0 -3.671875 C 0.226562 -3.566406 0.46875 -3.503906 0.71875 -3.484375 C 0.96875 -3.460938 1.210938 -3.488281 1.453125 -3.5625 C 1.691406 -3.644531 1.914062 -3.773438 2.125 -3.953125 Z M 2.125 -3.953125 "/></g></g></g><g fill="#ffffff" fill-opacity="1"><g transform="translate(229.448493, 225.529687)"><g><path d="M -5.125 -6.875 C -5.226562 -6.757812 -5.34375 -6.675781 -5.46875 -6.625 C -5.601562 -6.582031 -5.738281 -6.578125 -5.875 -6.609375 C -6.019531 -6.640625 -6.148438 -6.703125 -6.265625 -6.796875 C -6.367188 -6.890625 -6.441406 -7 -6.484375 -7.125 C -6.535156 -7.257812 -6.546875 -7.394531 -6.515625 -7.53125 C -6.492188 -7.675781 -6.429688 -7.804688 -6.328125 -7.921875 C -6.222656 -8.035156 -6.109375 -8.109375 -5.984375 -8.140625 C -5.859375 -8.179688 -5.722656 -8.191406 -5.578125 -8.171875 C -5.441406 -8.148438 -5.320312 -8.09375 -5.21875 -8 C -5.101562 -7.90625 -5.019531 -7.785156 -4.96875 -7.640625 C -4.925781 -7.503906 -4.914062 -7.367188 -4.9375 -7.234375 C -4.957031 -7.109375 -5.019531 -6.988281 -5.125 -6.875 Z M -3.6875 -6.5 C -3.59375 -6.613281 -3.492188 -6.625 -3.390625 -6.53125 L 1.609375 -2.171875 C 1.710938 -2.078125 1.71875 -1.972656 1.625 -1.859375 L 0.734375 -0.84375 C 0.648438 -0.738281 0.554688 -0.734375 0.453125 -0.828125 L -4.546875 -5.1875 C -4.648438 -5.28125 -4.660156 -5.378906 -4.578125 -5.484375 Z M -3.6875 -6.5 "/></g></g></g><g fill="#ffffff" fill-opacity="1"><g transform="translate(232.540161, 222.028655)"><g><path d="M -1.8125 -8.875 C -1.769531 -8.90625 -1.71875 -8.90625 -1.65625 -8.875 C -1.601562 -8.84375 -1.5625 -8.796875 -1.53125 -8.734375 L -1.09375 -7.734375 C -1.070312 -7.648438 -1.070312 -7.582031 -1.09375 -7.53125 C -1.113281 -7.476562 -1.160156 -7.445312 -1.234375 -7.4375 C -1.429688 -7.382812 -1.613281 -7.300781 -1.78125 -7.1875 C -1.957031 -7.082031 -2.085938 -6.96875 -2.171875 -6.84375 C -2.359375 -6.582031 -2.457031 -6.296875 -2.46875 -5.984375 C -2.476562 -5.671875 -2.410156 -5.375 -2.265625 -5.09375 C -2.117188 -4.820312 -1.910156 -4.59375 -1.640625 -4.40625 L 1.359375 -2.3125 C 1.472656 -2.238281 1.488281 -2.144531 1.40625 -2.03125 L 0.65625 -0.9375 C 0.570312 -0.8125 0.472656 -0.785156 0.359375 -0.859375 L -5.078125 -4.640625 C -5.128906 -4.679688 -5.160156 -4.726562 -5.171875 -4.78125 C -5.179688 -4.84375 -5.164062 -4.898438 -5.125 -4.953125 L -4.6875 -5.59375 C -4.65625 -5.632812 -4.613281 -5.664062 -4.5625 -5.6875 C -4.519531 -5.707031 -4.476562 -5.710938 -4.4375 -5.703125 L -3.4375 -5.375 C -3.5625 -5.644531 -3.640625 -5.929688 -3.671875 -6.234375 C -3.703125 -6.535156 -3.691406 -6.828125 -3.640625 -7.109375 C -3.585938 -7.390625 -3.476562 -7.648438 -3.3125 -7.890625 C -3.164062 -8.109375 -2.953125 -8.304688 -2.671875 -8.484375 C -2.398438 -8.671875 -2.113281 -8.800781 -1.8125 -8.875 Z M -1.8125 -8.875 "/></g></g></g><g fill="#000000" fill-opacity="1"><g transform="translate(128.724605, 201.047257)"><g><path d="M 9.078125 -20.75 C 10.398438 -20.75 11.617188 -20.546875 12.734375 -20.140625 C 13.847656 -19.742188 14.8125 -19.175781 15.625 -18.4375 C 16.445312 -17.695312 17.082031 -16.820312 17.53125 -15.8125 C 17.988281 -14.8125 18.21875 -13.71875 18.21875 -12.53125 C 18.21875 -11.332031 17.988281 -10.234375 17.53125 -9.234375 C 17.082031 -8.242188 16.445312 -7.382812 15.625 -6.65625 C 14.8125 -5.9375 13.847656 -5.378906 12.734375 -4.984375 C 11.617188 -4.585938 10.398438 -4.390625 9.078125 -4.390625 L 6.34375 -4.390625 L 6.34375 -0.59375 C 6.34375 -0.414062 6.285156 -0.269531 6.171875 -0.15625 C 6.066406 -0.0390625 5.914062 0.015625 5.71875 0.015625 L 3.09375 0.015625 C 2.894531 0.015625 2.738281 -0.0351562 2.625 -0.140625 C 2.519531 -0.253906 2.46875 -0.40625 2.46875 -0.59375 L 2.46875 -20.15625 C 2.46875 -20.332031 2.523438 -20.472656 2.640625 -20.578125 C 2.753906 -20.691406 2.90625 -20.75 3.09375 -20.75 L 4.5 -20.75 C 4.78125 -20.75 5.035156 -20.75 5.265625 -20.75 C 5.492188 -20.75 5.664062 -20.75 5.78125 -20.75 Z M 8.8125 -7.78125 C 9.625 -7.78125 10.363281 -7.890625 11.03125 -8.109375 C 11.707031 -8.335938 12.296875 -8.664062 12.796875 -9.09375 C 13.296875 -9.53125 13.679688 -10.035156 13.953125 -10.609375 C 14.222656 -11.191406 14.359375 -11.84375 14.359375 -12.5625 C 14.359375 -13.257812 14.222656 -13.898438 13.953125 -14.484375 C 13.679688 -15.066406 13.296875 -15.570312 12.796875 -16 C 12.296875 -16.4375 11.707031 -16.773438 11.03125 -17.015625 C 10.363281 -17.253906 9.625 -17.375 8.8125 -17.375 L 6.34375 -17.375 L 6.34375 -7.78125 Z M 8.8125 -7.78125 "/></g></g></g><g fill="#000000" fill-opacity="1"><g transform="translate(148.106054, 201.047257)"><g><path d="M 17.5 -3.65625 C 17.757812 -3.65625 17.960938 -3.585938 18.109375 -3.453125 C 18.265625 -3.316406 18.34375 -3.128906 18.34375 -2.890625 L 18.34375 -0.59375 C 18.34375 -0.414062 18.285156 -0.269531 18.171875 -0.15625 C 18.054688 -0.0507812 17.898438 0 17.703125 0 L 3.09375 0 C 2.675781 0 2.46875 -0.195312 2.46875 -0.59375 L 2.46875 -20.140625 C 2.46875 -20.546875 2.675781 -20.75 3.09375 -20.75 L 17.421875 -20.75 C 17.617188 -20.75 17.769531 -20.691406 17.875 -20.578125 C 17.988281 -20.472656 18.046875 -20.332031 18.046875 -20.15625 L 18.046875 -17.71875 C 18.046875 -17.300781 17.835938 -17.09375 17.421875 -17.09375 L 6.34375 -17.09375 L 6.34375 -11.375 L 15.015625 -11.375 C 15.242188 -11.375 15.421875 -11.316406 15.546875 -11.203125 C 15.671875 -11.097656 15.734375 -10.9375 15.734375 -10.71875 L 15.734375 -8.4375 C 15.734375 -8.257812 15.671875 -8.113281 15.546875 -8 C 15.421875 -7.882812 15.242188 -7.828125 15.015625 -7.828125 L 6.34375 -7.828125 L 6.34375 -3.65625 Z M 17.5 -3.65625 "/></g></g></g><g fill="#000000" fill-opacity="1"><g transform="translate(167.828961, 201.047257)"><g><path d="M 15.71875 -3.390625 C 16.019531 -3.390625 16.171875 -3.234375 16.171875 -2.921875 L 16.171875 -0.46875 C 16.171875 -0.15625 16.019531 0 15.71875 0 L 2.9375 0 C 2.625 0 2.46875 -0.15625 2.46875 -0.46875 L 2.46875 -20.3125 C 2.46875 -20.625 2.625 -20.78125 2.9375 -20.78125 L 5.890625 -20.78125 C 6.191406 -20.78125 6.34375 -20.625 6.34375 -20.3125 L 6.34375 -3.390625 Z M 15.71875 -3.390625 "/></g></g></g><g fill="#000000" fill-opacity="1"><g transform="translate(184.519676, 201.047257)"><g><path d="M 15.71875 -3.390625 C 16.019531 -3.390625 16.171875 -3.234375 16.171875 -2.921875 L 16.171875 -0.46875 C 16.171875 -0.15625 16.019531 0 15.71875 0 L 2.9375 0 C 2.625 0 2.46875 -0.15625 2.46875 -0.46875 L 2.46875 -20.3125 C 2.46875 -20.625 2.625 -20.78125 2.9375 -20.78125 L 5.890625 -20.78125 C 6.191406 -20.78125 6.34375 -20.625 6.34375 -20.3125 L 6.34375 -3.390625 Z M 15.71875 -3.390625 "/></g></g></g><g fill="#000000" fill-opacity="1"><g transform="translate(201.210391, 201.047257)"><g><path d="M 17.5 -3.65625 C 17.757812 -3.65625 17.960938 -3.585938 18.109375 -3.453125 C 18.265625 -3.316406 18.34375 -3.128906 18.34375 -2.890625 L 18.34375 -0.59375 C 18.34375 -0.414062 18.285156 -0.269531 18.171875 -0.15625 C 18.054688 -0.0507812 17.898438 0 17.703125 0 L 3.09375 0 C 2.675781 0 2.46875 -0.195312 2.46875 -0.59375 L 2.46875 -20.140625 C 2.46875 -20.546875 2.675781 -20.75 3.09375 -20.75 L 17.421875 -20.75 C 17.617188 -20.75 17.769531 -20.691406 17.875 -20.578125 C 17.988281 -20.472656 18.046875 -20.332031 18.046875 -20.15625 L 18.046875 -17.71875 C 18.046875 -17.300781 17.835938 -17.09375 17.421875 -17.09375 L 6.34375 -17.09375 L 6.34375 -11.375 L 15.015625 -11.375 C 15.242188 -11.375 15.421875 -11.316406 15.546875 -11.203125 C 15.671875 -11.097656 15.734375 -10.9375 15.734375 -10.71875 L 15.734375 -8.4375 C 15.734375 -8.257812 15.671875 -8.113281 15.546875 -8 C 15.421875 -7.882812 15.242188 -7.828125 15.015625 -7.828125 L 6.34375 -7.828125 L 6.34375 -3.65625 Z M 17.5 -3.65625 "/></g></g></g><g fill="#000000" fill-opacity="1"><g transform="translate(220.933298, 201.047257)"><g><path d="M 1.625 -19.296875 C 1.625 -19.640625 1.707031 -19.953125 1.875 -20.234375 C 2.039062 -20.515625 2.265625 -20.738281 2.546875 -20.90625 C 2.835938 -21.082031 3.160156 -21.171875 3.515625 -21.171875 C 3.898438 -21.171875 4.242188 -21.0625 4.546875 -20.84375 C 4.859375 -20.625 5.101562 -20.320312 5.28125 -19.9375 C 5.46875 -19.5625 5.5625 -19.128906 5.5625 -18.640625 C 5.5625 -17.867188 5.453125 -17.175781 5.234375 -16.5625 C 5.023438 -15.957031 4.707031 -15.332031 4.28125 -14.6875 C 4.195312 -14.582031 4.085938 -14.507812 3.953125 -14.46875 C 3.816406 -14.4375 3.695312 -14.457031 3.59375 -14.53125 L 2.78125 -14.953125 C 2.695312 -15.003906 2.648438 -15.097656 2.640625 -15.234375 C 2.628906 -15.367188 2.671875 -15.515625 2.765625 -15.671875 C 2.941406 -15.960938 3.117188 -16.269531 3.296875 -16.59375 C 3.472656 -16.925781 3.5625 -17.179688 3.5625 -17.359375 C 3.5625 -17.398438 3.554688 -17.441406 3.546875 -17.484375 C 3.535156 -17.523438 3.519531 -17.554688 3.5 -17.578125 C 3.457031 -17.566406 3.410156 -17.550781 3.359375 -17.53125 C 3.304688 -17.519531 3.234375 -17.515625 3.140625 -17.515625 C 2.859375 -17.515625 2.601562 -17.59375 2.375 -17.75 C 2.144531 -17.914062 1.960938 -18.128906 1.828125 -18.390625 C 1.691406 -18.660156 1.625 -18.960938 1.625 -19.296875 Z M 1.625 -19.296875 "/></g></g></g><g fill="#000000" fill-opacity="1"><g transform="translate(228.131345, 201.047257)"><g><path d="M 9.375 0.328125 C 8.59375 0.328125 7.8125 0.242188 7.03125 0.078125 C 6.257812 -0.0859375 5.523438 -0.328125 4.828125 -0.640625 C 4.128906 -0.953125 3.492188 -1.316406 2.921875 -1.734375 C 2.359375 -2.160156 1.890625 -2.628906 1.515625 -3.140625 C 1.410156 -3.265625 1.367188 -3.40625 1.390625 -3.5625 C 1.410156 -3.726562 1.492188 -3.882812 1.640625 -4.03125 L 3.421875 -5.8125 C 3.546875 -5.925781 3.6875 -5.972656 3.84375 -5.953125 C 4 -5.929688 4.160156 -5.84375 4.328125 -5.6875 C 4.742188 -5.25 5.21875 -4.851562 5.75 -4.5 C 6.289062 -4.144531 6.859375 -3.863281 7.453125 -3.65625 C 8.054688 -3.457031 8.644531 -3.359375 9.21875 -3.359375 C 10.382812 -3.359375 11.273438 -3.585938 11.890625 -4.046875 C 12.515625 -4.503906 12.828125 -5.132812 12.828125 -5.9375 C 12.828125 -6.425781 12.65625 -6.84375 12.3125 -7.1875 C 11.976562 -7.539062 11.484375 -7.863281 10.828125 -8.15625 C 10.179688 -8.445312 9.390625 -8.753906 8.453125 -9.078125 C 7.472656 -9.390625 6.597656 -9.726562 5.828125 -10.09375 C 5.066406 -10.46875 4.414062 -10.890625 3.875 -11.359375 C 3.34375 -11.835938 2.9375 -12.390625 2.65625 -13.015625 C 2.375 -13.648438 2.234375 -14.382812 2.234375 -15.21875 C 2.234375 -16.394531 2.519531 -17.421875 3.09375 -18.296875 C 3.675781 -19.171875 4.5 -19.847656 5.5625 -20.328125 C 6.625 -20.816406 7.878906 -21.0625 9.328125 -21.0625 C 10.109375 -21.0625 10.875 -20.960938 11.625 -20.765625 C 12.382812 -20.578125 13.078125 -20.304688 13.703125 -19.953125 C 14.328125 -19.609375 14.835938 -19.195312 15.234375 -18.71875 C 15.378906 -18.5625 15.453125 -18.390625 15.453125 -18.203125 C 15.460938 -18.023438 15.40625 -17.859375 15.28125 -17.703125 L 13.84375 -16.0625 C 13.65625 -15.84375 13.460938 -15.742188 13.265625 -15.765625 C 13.078125 -15.785156 12.875 -15.867188 12.65625 -16.015625 C 12.1875 -16.453125 11.632812 -16.789062 11 -17.03125 C 10.375 -17.269531 9.757812 -17.390625 9.15625 -17.390625 C 8.164062 -17.390625 7.394531 -17.179688 6.84375 -16.765625 C 6.300781 -16.359375 6.03125 -15.832031 6.03125 -15.1875 C 6.03125 -14.664062 6.222656 -14.21875 6.609375 -13.84375 C 7.003906 -13.476562 7.535156 -13.148438 8.203125 -12.859375 C 8.867188 -12.566406 9.601562 -12.285156 10.40625 -12.015625 C 11.25 -11.734375 12.050781 -11.429688 12.8125 -11.109375 C 13.582031 -10.796875 14.265625 -10.414062 14.859375 -9.96875 C 15.460938 -9.53125 15.941406 -8.984375 16.296875 -8.328125 C 16.648438 -7.679688 16.828125 -6.898438 16.828125 -5.984375 C 16.828125 -5.015625 16.644531 -4.140625 16.28125 -3.359375 C 15.914062 -2.585938 15.398438 -1.925781 14.734375 -1.375 C 14.078125 -0.820312 13.289062 -0.398438 12.375 -0.109375 C 11.46875 0.179688 10.46875 0.328125 9.375 0.328125 Z M 9.375 0.328125 "/></g></g></g></svg>