<svg xmlns="http://www.w3.org/2000/svg" xmlns:xlink="http://www.w3.org/1999/xlink" width="500" zoomAndPan="magnify" viewBox="0 0 375 374.999991" height="500" preserveAspectRatio="xMidYMid meet" version="1.0"><defs><g/><clipPath id="f1642ebb0f"><path d="M 94 102 L 286 102 L 286 182 L 94 182 Z M 94 102 " clip-rule="nonzero"/></clipPath><clipPath id="7b739eebd7"><path d="M 89.460938 108.964844 L 281.921875 98.402344 L 285.910156 171.042969 L 93.449219 181.605469 Z M 89.460938 108.964844 " clip-rule="nonzero"/></clipPath><clipPath id="58199ae16c"><path d="M 89.460938 108.964844 L 281.921875 98.402344 L 292.445312 290.113281 L 99.984375 300.675781 Z M 89.460938 108.964844 " clip-rule="nonzero"/></clipPath><clipPath id="61f903cd5e"><path d="M 76.566406 166.628906 L 160 166.628906 L 160 207 L 76.566406 207 Z M 76.566406 166.628906 " clip-rule="nonzero"/></clipPath><clipPath id="3d24eb0a1f"><path d="M 219 213 L 291.816406 213 L 291.816406 224 L 219 224 Z M 219 213 " clip-rule="nonzero"/></clipPath></defs><g clip-path="url(#f1642ebb0f)"><g clip-path="url(#7b739eebd7)"><g clip-path="url(#58199ae16c)"><path fill="#ffffff" d="M 286.726562 192.855469 C 286.503906 188.789062 286.03125 184.792969 285.324219 180.882812 L 273.34375 178.058594 C 271.550781 170.753906 268.820312 163.835938 265.292969 157.429688 L 272.308594 147.207031 C 268.023438 140.355469 262.902344 134.09375 257.101562 128.558594 L 245.570312 133.390625 C 239.984375 128.675781 233.785156 124.667969 227.125 121.507812 L 226.785156 108.949219 C 219.429688 105.964844 211.632812 103.871094 203.542969 102.789062 L 196.996094 113.5625 C 193.398438 113.300781 189.738281 113.261719 186.039062 113.464844 C 182.339844 113.667969 178.707031 114.105469 175.15625 114.761719 L 167.472656 104.765625 C 159.550781 106.730469 152.027344 109.664062 145.046875 113.433594 L 146.082031 125.957031 C 139.804688 129.828125 134.085938 134.488281 129.046875 139.785156 L 117.054688 136.246094 C 111.894531 142.378906 107.492188 149.164062 103.988281 156.445312 L 112.074219 165.839844 C 109.269531 172.589844 107.3125 179.765625 106.332031 187.226562 L 94.730469 191.34375 C 94.453125 195.308594 94.421875 199.332031 94.644531 203.398438 C 94.667969 203.824219 94.699219 204.246094 94.726562 204.671875 C 94.746094 205.097656 94.761719 205.519531 94.785156 205.945312 C 95.007812 210.011719 95.480469 214.007812 96.1875 217.917969 L 108.171875 220.742188 C 109.964844 228.046875 112.691406 234.964844 116.21875 241.371094 L 109.203125 251.59375 C 113.488281 258.445312 118.609375 264.707031 124.410156 270.242188 L 135.941406 265.410156 C 141.53125 270.125 147.726562 274.132812 154.390625 277.292969 L 154.730469 289.851562 C 162.082031 292.835938 169.878906 294.929688 177.972656 296.011719 L 184.515625 285.238281 C 188.117188 285.5 191.773438 285.539062 195.472656 285.335938 C 199.171875 285.132812 202.804688 284.695312 206.355469 284.039062 L 214.039062 294.035156 C 221.964844 292.070312 229.484375 289.136719 236.464844 285.367188 L 235.429688 272.84375 C 241.707031 268.972656 247.425781 264.3125 252.464844 259.015625 L 264.457031 262.554688 C 269.617188 256.421875 274.023438 249.636719 277.523438 242.355469 L 269.4375 232.960938 C 272.242188 226.210938 274.199219 219.035156 275.183594 211.574219 L 286.78125 207.457031 C 287.058594 203.492188 287.089844 199.46875 286.867188 195.402344 C 286.84375 194.976562 286.8125 194.554688 286.785156 194.128906 C 286.769531 193.703125 286.75 193.28125 286.726562 192.855469 Z M 195.117188 278.828125 C 152.164062 281.1875 115.378906 248.585938 112.417969 205.808594 C 112.429688 205.808594 112.445312 205.804688 112.460938 205.800781 C 112.398438 205.109375 112.355469 204.40625 112.308594 203.707031 C 112.277344 203.003906 112.246094 202.304688 112.230469 201.609375 C 112.214844 201.605469 112.203125 201.605469 112.183594 201.605469 C 110.445312 158.761719 143.445312 122.328125 186.398438 119.972656 C 229.347656 117.613281 266.136719 150.214844 269.097656 192.992188 C 269.082031 192.992188 269.066406 192.996094 269.050781 193 C 269.113281 193.691406 269.15625 194.394531 269.203125 195.09375 C 269.234375 195.796875 269.265625 196.496094 269.28125 197.191406 C 269.296875 197.195312 269.3125 197.195312 269.328125 197.195312 C 271.066406 240.039062 238.066406 276.472656 195.117188 278.828125 Z M 195.117188 278.828125 " fill-opacity="1" fill-rule="nonzero"/></g></g></g><g clip-path="url(#61f903cd5e)"><path fill="#ffffff" d="M 155.226562 167.195312 C 156.777344 166.941406 158.335938 166.652344 159.914062 166.632812 C 155.367188 167.332031 150.867188 168.445312 146.574219 170.105469 C 142.609375 171.636719 138.871094 173.726562 135.488281 176.296875 C 132.34375 178.652344 129.527344 181.398438 126.539062 183.9375 C 123.175781 186.730469 119.5 189.128906 115.699219 191.28125 C 107.546875 195.855469 98.835938 199.351562 89.964844 202.269531 C 86.144531 203.507812 82.289062 204.652344 78.390625 205.640625 C 77.816406 205.769531 77.25 205.96875 76.660156 206.007812 C 78.882812 205.464844 81.066406 204.769531 83.257812 204.121094 C 92.550781 201.261719 101.695312 197.820312 110.328125 193.324219 C 116.417969 190.136719 122.261719 186.398438 127.382812 181.789062 C 128.601562 180.734375 129.703125 179.546875 130.9375 178.507812 C 137.78125 172.578125 146.347656 168.804688 155.226562 167.195312 Z M 155.226562 167.195312 " fill-opacity="1" fill-rule="nonzero"/></g><path fill="#ffffff" d="M 176.777344 167.917969 C 186.632812 167.273438 196.527344 168.035156 206.289062 169.417969 C 208.839844 169.613281 211.222656 170.59375 213.628906 171.390625 C 221.15625 173.972656 228.605469 176.816406 235.828125 180.167969 C 229.660156 179.617188 223.464844 179.433594 217.273438 179.417969 C 209.875 179.386719 202.476562 179.601562 195.085938 179.964844 C 193.328125 180.0625 191.546875 180.121094 189.808594 179.796875 C 188.425781 179.539062 187.066406 179.015625 185.984375 178.097656 C 183.042969 175.460938 180.25 172.644531 177.074219 170.285156 C 176.523438 169.851562 175.839844 169.558594 175.445312 168.957031 C 175.292969 168.757812 175.265625 168.429688 175.5 168.277344 C 175.867188 168.007812 176.339844 167.96875 176.777344 167.917969 Z M 176.777344 167.917969 " fill-opacity="1" fill-rule="nonzero"/><path fill="#ffffff" d="M 161.003906 169.710938 C 163.515625 169.453125 166.09375 169.574219 168.53125 170.292969 C 171.769531 171.21875 174.691406 173.085938 177.070312 175.449219 C 179.066406 177.421875 180.691406 179.742188 182.046875 182.191406 C 172.3125 182.585938 162.570312 182.945312 152.832031 183.347656 C 151.496094 180.433594 149.765625 177.664062 147.488281 175.394531 C 147.113281 174.996094 146.59375 174.683594 146.425781 174.136719 C 146.398438 173.703125 146.875 173.519531 147.191406 173.359375 C 148.839844 172.667969 150.53125 172.097656 152.234375 171.570312 C 155.097656 170.699219 158.023438 170.003906 161.003906 169.710938 Z M 161.003906 169.710938 " fill-opacity="1" fill-rule="nonzero"/><path fill="#ffffff" d="M 141.945312 175.792969 C 142.585938 175.476562 143.210938 175.03125 143.953125 175.003906 C 144.515625 175.0625 144.953125 175.480469 145.378906 175.820312 C 146.628906 176.949219 147.601562 178.339844 148.523438 179.738281 C 149.039062 180.535156 149.527344 181.34375 149.980469 182.179688 C 150.132812 182.480469 150.308594 182.851562 150.15625 183.1875 C 149.929688 183.535156 149.464844 183.496094 149.101562 183.503906 C 146.433594 183.46875 143.761719 183.515625 141.09375 183.597656 C 138.539062 183.710938 135.980469 183.847656 133.453125 184.257812 C 132.535156 184.417969 131.601562 184.59375 130.746094 184.980469 C 132.691406 181.65625 135.730469 179.101562 139.070312 177.253906 C 140.003906 176.71875 140.980469 176.269531 141.945312 175.792969 Z M 141.945312 175.792969 " fill-opacity="1" fill-rule="nonzero"/><path fill="#ffffff" d="M 203.886719 181.617188 C 209.722656 181.476562 215.558594 181.324219 221.386719 181.054688 C 227.675781 180.84375 233.984375 180.929688 240.253906 181.511719 C 245.679688 181.988281 251.09375 182.566406 256.488281 183.277344 C 259.335938 183.660156 262.179688 184.070312 264.996094 184.636719 C 269.171875 185.445312 273.390625 186.273438 277.304688 187.988281 C 278.480469 188.511719 279.632812 189.101562 280.722656 189.789062 C 278.503906 188.933594 276.222656 188.199219 273.882812 187.753906 C 272.886719 187.550781 271.875 187.449219 270.878906 187.253906 C 269.75 187.160156 268.617188 187.261719 267.484375 187.25 C 263.96875 187.277344 260.441406 187.386719 256.949219 187.863281 C 256.496094 187.9375 255.964844 188.019531 255.683594 188.425781 C 255.429688 188.824219 255.621094 189.3125 255.800781 189.699219 C 257.011719 191.832031 258.097656 194.03125 259.21875 196.210938 C 259.988281 197.746094 260.789062 199.265625 261.535156 200.8125 C 258.480469 195.945312 254.265625 191.820312 249.382812 188.796875 C 248.546875 188.28125 247.695312 187.792969 246.808594 187.375 C 245.601562 186.820312 244.300781 186.519531 242.992188 186.3125 C 240.480469 185.988281 238 185.449219 235.503906 185.039062 C 223.589844 182.972656 211.511719 181.761719 199.417969 181.746094 C 200.90625 181.640625 202.398438 181.660156 203.886719 181.617188 Z M 203.886719 181.617188 " fill-opacity="1" fill-rule="nonzero"/><path fill="#ffffff" d="M 233.625 188.226562 C 235.511719 188.625 237.414062 189.308594 238.863281 190.625 C 239.703125 191.371094 240.324219 192.367188 240.589844 193.460938 C 240.769531 194.179688 240.675781 194.988281 240.230469 195.59375 C 239.691406 196.335938 238.835938 196.765625 237.984375 197.039062 C 238.761719 196.445312 239.566406 195.773438 239.894531 194.8125 C 240.210938 193.917969 239.914062 192.929688 239.367188 192.1875 C 238.507812 191.019531 237.292969 190.175781 236.058594 189.441406 C 235.273438 188.984375 234.460938 188.582031 233.625 188.226562 Z M 233.625 188.226562 " fill-opacity="1" fill-rule="nonzero"/><path fill="#ffffff" d="M 269.90625 188.222656 C 270.429688 188.15625 270.960938 188.128906 271.488281 188.1875 C 273.976562 188.6875 276.496094 189.121094 278.917969 189.917969 C 279.625 190.152344 280.332031 190.4375 280.910156 190.917969 C 281.679688 191.527344 282.175781 192.410156 282.492188 193.324219 C 283.050781 194.96875 283.636719 196.605469 284.039062 198.292969 C 284.203125 199.011719 284.390625 199.816406 284.015625 200.503906 C 283.796875 200.949219 283.285156 201.167969 282.8125 201.136719 C 278.054688 200.773438 273.285156 200.585938 268.515625 200.511719 C 267.292969 200.460938 266.03125 200.625 264.855469 200.21875 C 263.53125 199.765625 262.570312 198.671875 261.789062 197.558594 C 260.515625 195.703125 259.378906 193.757812 258.316406 191.773438 C 257.988281 191.105469 257.683594 190.335938 257.875 189.582031 C 258.023438 189.027344 258.617188 188.78125 259.140625 188.746094 C 262.71875 188.394531 266.316406 188.398438 269.90625 188.222656 Z M 269.90625 188.222656 " fill-opacity="1" fill-rule="nonzero"/><path fill="#ffffff" d="M 230.675781 188.34375 C 232.535156 188.195312 234.300781 189.039062 235.859375 189.96875 C 236.851562 190.574219 237.820312 191.289062 238.492188 192.253906 C 239.039062 193.039062 239.320312 194.035156 239.144531 194.988281 C 238.886719 195.84375 238.105469 196.4375 237.273438 196.683594 C 236.210938 197 235.074219 196.957031 233.996094 196.75 C 231.445312 196.253906 229.242188 194.40625 228.210938 192.039062 C 227.890625 191.328125 227.839844 190.4375 228.355469 189.800781 C 228.9375 189.09375 229.722656 188.429688 230.675781 188.34375 Z M 230.675781 188.34375 " fill-opacity="1" fill-rule="nonzero"/><path fill="#ffffff" d="M 242.832031 188.394531 C 244.675781 188.082031 246.523438 188.804688 248.019531 189.839844 C 248.976562 190.492188 249.828125 191.292969 250.613281 192.144531 C 251.328125 192.882812 251.789062 193.847656 252.039062 194.839844 C 252.21875 195.636719 252.230469 196.5625 251.703125 197.238281 C 251.085938 198.019531 250.019531 198.269531 249.070312 198.25 C 246.519531 198.007812 244.097656 196.625 242.59375 194.550781 C 242.042969 193.804688 241.601562 192.984375 241.273438 192.121094 C 241.003906 191.332031 240.929688 190.433594 241.261719 189.648438 C 241.535156 189.003906 242.144531 188.519531 242.832031 188.394531 Z M 242.832031 188.394531 " fill-opacity="1" fill-rule="nonzero"/><path fill="#ffffff" d="M 247.109375 188.671875 C 248.734375 189.554688 250.359375 190.480469 251.753906 191.707031 C 252.453125 192.34375 253.128906 193.058594 253.5 193.945312 C 253.789062 194.609375 253.820312 195.402344 253.488281 196.058594 C 253.238281 196.59375 252.792969 197 252.332031 197.359375 C 252.8125 196.488281 252.925781 195.433594 252.609375 194.492188 C 252.125 192.980469 251.015625 191.777344 249.863281 190.734375 C 249.011719 189.960938 248.050781 189.328125 247.109375 188.671875 Z M 247.109375 188.671875 " fill-opacity="1" fill-rule="nonzero"/><path fill="#ffffff" d="M 282.964844 192.125 C 283.011719 192.101562 283.105469 192.050781 283.152344 192.027344 C 283.601562 192.121094 283.953125 192.460938 284.277344 192.773438 C 285.21875 193.773438 285.875 195.003906 286.429688 196.25 C 286.796875 197.121094 287.203125 197.992188 287.335938 198.9375 C 287.375 199.34375 287.414062 199.824219 287.113281 200.144531 C 286.925781 200.265625 286.71875 200.113281 286.578125 199.992188 C 285.351562 198.789062 284.742188 197.128906 283.96875 195.628906 C 283.5625 194.753906 283.121094 193.886719 282.894531 192.945312 C 282.851562 192.679688 282.773438 192.351562 282.964844 192.125 Z M 282.964844 192.125 " fill-opacity="1" fill-rule="nonzero"/><path fill="#ffffff" d="M 200.753906 195.101562 C 202.816406 194.734375 204.996094 194.75 206.96875 195.519531 C 208.703125 196.171875 210.199219 197.355469 211.355469 198.792969 C 212.792969 200.582031 213.753906 202.710938 214.390625 204.90625 C 215.078125 207.316406 215.40625 209.824219 215.371094 212.328125 C 215.246094 214.558594 214.949219 216.789062 214.359375 218.945312 C 213.800781 220.972656 212.96875 222.949219 211.691406 224.628906 C 210.574219 226.117188 209.082031 227.335938 207.359375 228.054688 C 205.40625 228.882812 203.222656 229.078125 201.128906 228.804688 C 202.949219 228.628906 204.753906 228.039062 206.230469 226.933594 C 207.902344 225.699219 209.105469 223.929688 209.925781 222.039062 C 210.996094 219.585938 211.527344 216.933594 211.839844 214.289062 C 212.171875 211.710938 212.125 209.09375 211.804688 206.519531 C 211.523438 204.394531 211.003906 202.273438 210.015625 200.359375 C 209.167969 198.714844 207.917969 197.246094 206.308594 196.308594 C 204.648438 195.3125 202.671875 194.980469 200.753906 195.101562 Z M 200.753906 195.101562 " fill-opacity="1" fill-rule="nonzero"/><path fill="#ffffff" d="M 131.832031 200.835938 C 132.789062 202.476562 133.816406 204.105469 135.164062 205.457031 C 135.949219 206.234375 136.859375 206.902344 137.894531 207.296875 C 138.984375 207.726562 140.160156 207.835938 141.320312 207.921875 C 155.347656 208.773438 169.378906 209.566406 183.410156 210.386719 C 184.261719 210.46875 185.121094 210.425781 185.96875 210.574219 C 179.320312 210.425781 172.671875 210.363281 166.023438 210.242188 C 157.484375 210.121094 148.949219 209.976562 140.410156 209.855469 C 139.304688 209.808594 138.179688 209.910156 137.09375 209.675781 C 135.460938 209.3125 134.1875 207.953125 133.683594 206.394531 C 133.074219 204.539062 132.414062 202.699219 131.832031 200.835938 Z M 131.832031 200.835938 " fill-opacity="1" fill-rule="nonzero"/><path fill="#ffffff" d="M 141.894531 212.457031 C 142.390625 212.398438 142.878906 212.277344 143.378906 212.285156 C 152.644531 212.648438 161.910156 212.980469 171.179688 213.253906 C 174.535156 213.339844 177.890625 213.453125 181.246094 213.460938 C 181.621094 213.472656 182 213.507812 182.371094 213.554688 C 181.039062 213.519531 179.710938 213.667969 178.382812 213.683594 C 169.960938 214.027344 161.53125 214.046875 153.105469 214.011719 C 146.460938 213.980469 139.820312 213.863281 133.183594 213.707031 C 136.082031 213.265625 138.992188 212.875 141.894531 212.457031 Z M 141.894531 212.457031 " fill-opacity="1" fill-rule="nonzero"/><g clip-path="url(#3d24eb0a1f)"><path fill="#ffffff" d="M 219.761719 213.476562 C 219.839844 213.277344 220.0625 213.3125 220.238281 213.3125 C 225.207031 213.546875 230.183594 213.761719 235.160156 213.644531 C 235.9375 215.179688 237.265625 216.441406 238.890625 217.035156 C 239.945312 217.4375 241.078125 217.597656 242.203125 217.546875 C 251.1875 218.117188 260.1875 218.582031 269.195312 218.457031 C 272.402344 218.335938 275.605469 218.144531 278.800781 217.847656 C 281.285156 217.601562 283.769531 217.308594 286.210938 216.792969 C 287.265625 216.558594 288.316406 216.304688 289.316406 215.886719 C 289.832031 215.65625 290.378906 215.398438 290.691406 214.90625 C 291.207031 215.566406 291.4375 216.386719 291.671875 217.175781 C 291.886719 217.925781 291.742188 218.777344 291.230469 219.371094 C 290.484375 220.242188 289.386719 220.683594 288.328125 221.042969 C 286.121094 221.742188 283.8125 222.046875 281.519531 222.316406 C 275.570312 222.941406 269.582031 223.121094 263.605469 223.320312 C 251.242188 223.726562 238.855469 223.359375 226.53125 222.316406 C 224.546875 222.136719 222.558594 221.953125 220.578125 221.71875 C 220.425781 221.675781 220.171875 221.699219 220.144531 221.488281 C 220.148438 218.816406 220.007812 216.140625 219.761719 213.476562 Z M 219.761719 213.476562 " fill-opacity="1" fill-rule="nonzero"/></g><path fill="#ffffff" d="M 211.09375 226.855469 C 214.445312 223.964844 216.164062 219.527344 216.351562 215.171875 C 216.648438 216.375 216.636719 217.625 216.714844 218.855469 C 216.753906 220.488281 216.808594 222.128906 216.710938 223.765625 C 216.78125 224.101562 217.203125 224.195312 217.496094 224.257812 C 218.921875 224.476562 220.367188 224.457031 221.804688 224.566406 C 221.398438 225.242188 220.789062 225.761719 220.238281 226.3125 C 219.386719 227.128906 218.496094 227.910156 217.585938 228.664062 C 216.539062 229.515625 215.105469 229.457031 213.835938 229.617188 C 211.113281 229.808594 208.363281 230.015625 205.636719 229.761719 C 207.628906 229.183594 209.519531 228.21875 211.09375 226.855469 Z M 211.09375 226.855469 " fill-opacity="1" fill-rule="nonzero"/><path fill="#ffffff" d="M 111.683594 217.417969 C 114.210938 217.613281 116.722656 217.9375 119.246094 218.171875 C 130.90625 219.347656 142.574219 220.46875 154.25 221.484375 C 162.058594 222.15625 169.871094 222.796875 177.695312 223.25 C 179.617188 223.328125 181.535156 223.472656 183.457031 223.488281 C 180.355469 223.53125 177.253906 223.445312 174.152344 223.421875 C 166.296875 223.359375 158.441406 223.292969 150.585938 223.261719 C 150.023438 223.25 149.460938 223.28125 148.902344 223.238281 C 136.496094 221.308594 124.09375 219.339844 111.683594 217.417969 Z M 111.683594 217.417969 " fill-opacity="1" fill-rule="nonzero"/><path fill="#ffffff" d="M 270.339844 225.191406 C 272.769531 225.125 275.199219 225.011719 277.621094 224.808594 C 277.203125 225.566406 276.496094 226.105469 275.847656 226.652344 C 272.832031 229.003906 269.148438 230.589844 265.308594 230.8125 C 262.859375 230.949219 260.382812 230.46875 258.167969 229.417969 C 256.027344 228.421875 254.132812 226.957031 252.5 225.261719 C 258.445312 225.335938 264.394531 225.347656 270.339844 225.191406 Z M 270.339844 225.191406 " fill-opacity="1" fill-rule="nonzero"/><g fill="#ffffff" fill-opacity="1"><g transform="translate(64.275739, 253.557523)"><g><path d="M 0.296875 0 C 0.0976562 0 0 -0.0976562 0 -0.296875 L 0 -14.203125 C 0 -14.398438 0.0976562 -14.5 0.296875 -14.5 L 17.34375 -14.5 C 18.195312 -14.5 18.898438 -14.21875 19.453125 -13.65625 C 20.015625 -13.09375 20.296875 -12.390625 20.296875 -11.546875 L 20.296875 -8.765625 C 20.296875 -7.910156 20.015625 -7.203125 19.453125 -6.640625 C 18.898438 -6.078125 18.195312 -5.796875 17.34375 -5.796875 L 2.90625 -5.796875 L 2.90625 -0.296875 C 2.90625 -0.0976562 2.804688 0 2.609375 0 Z M 2.90625 -8.703125 L 16.8125 -8.703125 C 16.96875 -8.703125 17.101562 -8.757812 17.21875 -8.875 C 17.34375 -8.988281 17.40625 -9.125 17.40625 -9.28125 L 17.40625 -11.015625 C 17.40625 -11.171875 17.34375 -11.304688 17.21875 -11.421875 C 17.101562 -11.535156 16.96875 -11.59375 16.8125 -11.59375 L 2.90625 -11.59375 Z M 2.90625 -8.703125 "/></g></g></g><g fill="#ffffff" fill-opacity="1"><g transform="translate(87.469479, 253.557523)"><g><path d="M 2.953125 0 C 2.109375 0 1.40625 -0.28125 0.84375 -0.84375 C 0.28125 -1.40625 0 -2.109375 0 -2.953125 L 0 -11.546875 C 0 -12.390625 0.28125 -13.09375 0.84375 -13.65625 C 1.40625 -14.21875 2.109375 -14.5 2.953125 -14.5 L 20.015625 -14.5 C 20.203125 -14.5 20.296875 -14.398438 20.296875 -14.203125 L 20.296875 -11.890625 C 20.296875 -11.691406 20.203125 -11.59375 20.015625 -11.59375 L 3.484375 -11.59375 C 3.328125 -11.59375 3.191406 -11.535156 3.078125 -11.421875 C 2.960938 -11.304688 2.90625 -11.171875 2.90625 -11.015625 L 2.90625 -8.703125 L 18.625 -8.703125 C 18.851562 -8.703125 18.96875 -8.601562 18.96875 -8.40625 L 18.96875 -6.09375 C 18.96875 -5.894531 18.851562 -5.796875 18.625 -5.796875 L 2.90625 -5.796875 L 2.90625 -3.484375 C 2.90625 -3.328125 2.960938 -3.191406 3.078125 -3.078125 C 3.191406 -2.960938 3.328125 -2.90625 3.484375 -2.90625 L 20.015625 -2.90625 C 20.203125 -2.90625 20.296875 -2.804688 20.296875 -2.609375 L 20.296875 -0.296875 C 20.296875 -0.0976562 20.203125 0 20.015625 0 Z M 2.953125 0 "/></g></g></g><g fill="#ffffff" fill-opacity="1"><g transform="translate(110.663218, 253.557523)"><g><path d="M 2.953125 0 C 2.109375 0 1.40625 -0.28125 0.84375 -0.84375 C 0.28125 -1.40625 0 -2.109375 0 -2.953125 L 0 -14.203125 C 0 -14.398438 0.0976562 -14.5 0.296875 -14.5 L 2.609375 -14.5 C 2.804688 -14.5 2.90625 -14.398438 2.90625 -14.203125 L 2.90625 -3.484375 C 2.90625 -3.328125 2.960938 -3.191406 3.078125 -3.078125 C 3.191406 -2.960938 3.328125 -2.90625 3.484375 -2.90625 L 20.015625 -2.90625 C 20.203125 -2.90625 20.296875 -2.804688 20.296875 -2.609375 L 20.296875 -0.296875 C 20.296875 -0.0976562 20.203125 0 20.015625 0 Z M 2.953125 0 "/></g></g></g><g fill="#ffffff" fill-opacity="1"><g transform="translate(133.856958, 253.557523)"><g><path d="M 2.953125 0 C 2.109375 0 1.40625 -0.28125 0.84375 -0.84375 C 0.28125 -1.40625 0 -2.109375 0 -2.953125 L 0 -14.203125 C 0 -14.398438 0.0976562 -14.5 0.296875 -14.5 L 2.609375 -14.5 C 2.804688 -14.5 2.90625 -14.398438 2.90625 -14.203125 L 2.90625 -3.484375 C 2.90625 -3.328125 2.960938 -3.191406 3.078125 -3.078125 C 3.191406 -2.960938 3.328125 -2.90625 3.484375 -2.90625 L 20.015625 -2.90625 C 20.203125 -2.90625 20.296875 -2.804688 20.296875 -2.609375 L 20.296875 -0.296875 C 20.296875 -0.0976562 20.203125 0 20.015625 0 Z M 2.953125 0 "/></g></g></g><g fill="#ffffff" fill-opacity="1"><g transform="translate(157.050697, 253.557523)"><g><path d="M 2.953125 0 C 2.109375 0 1.40625 -0.28125 0.84375 -0.84375 C 0.28125 -1.40625 0 -2.109375 0 -2.953125 L 0 -11.546875 C 0 -12.390625 0.28125 -13.09375 0.84375 -13.65625 C 1.40625 -14.21875 2.109375 -14.5 2.953125 -14.5 L 20.015625 -14.5 C 20.203125 -14.5 20.296875 -14.398438 20.296875 -14.203125 L 20.296875 -11.890625 C 20.296875 -11.691406 20.203125 -11.59375 20.015625 -11.59375 L 3.484375 -11.59375 C 3.328125 -11.59375 3.191406 -11.535156 3.078125 -11.421875 C 2.960938 -11.304688 2.90625 -11.171875 2.90625 -11.015625 L 2.90625 -8.703125 L 18.625 -8.703125 C 18.851562 -8.703125 18.96875 -8.601562 18.96875 -8.40625 L 18.96875 -6.09375 C 18.96875 -5.894531 18.851562 -5.796875 18.625 -5.796875 L 2.90625 -5.796875 L 2.90625 -3.484375 C 2.90625 -3.328125 2.960938 -3.191406 3.078125 -3.078125 C 3.191406 -2.960938 3.328125 -2.90625 3.484375 -2.90625 L 20.015625 -2.90625 C 20.203125 -2.90625 20.296875 -2.804688 20.296875 -2.609375 L 20.296875 -0.296875 C 20.296875 -0.0976562 20.203125 0 20.015625 0 Z M 2.953125 0 "/></g></g></g><g fill="#ffffff" fill-opacity="1"><g transform="translate(180.244437, 253.557523)"><g><path d="M 0.296875 -14.5 C 0.0976562 -14.5 0 -14.597656 0 -14.796875 L 0 -17.109375 C 0 -17.304688 0.0976562 -17.40625 0.296875 -17.40625 L 2.609375 -17.40625 C 2.804688 -17.40625 2.90625 -17.304688 2.90625 -17.109375 L 2.90625 -14.796875 C 2.90625 -14.597656 2.804688 -14.5 2.609375 -14.5 Z M 0.296875 -14.5 "/></g></g></g><g fill="#ffffff" fill-opacity="1"><g transform="translate(186.042872, 253.557523)"><g><path d="M 0.296875 0 C 0.0976562 0 0 -0.0976562 0 -0.296875 L 0 -2.609375 C 0 -2.804688 0.0976562 -2.90625 0.296875 -2.90625 L 16.8125 -2.90625 C 16.96875 -2.90625 17.101562 -2.960938 17.21875 -3.078125 C 17.34375 -3.191406 17.40625 -3.328125 17.40625 -3.484375 L 17.40625 -5.21875 C 17.40625 -5.375 17.34375 -5.507812 17.21875 -5.625 C 17.101562 -5.738281 16.96875 -5.796875 16.8125 -5.796875 L 2.953125 -5.796875 C 2.109375 -5.796875 1.40625 -6.078125 0.84375 -6.640625 C 0.28125 -7.203125 0 -7.910156 0 -8.765625 L 0 -11.546875 C 0 -12.390625 0.28125 -13.09375 0.84375 -13.65625 C 1.40625 -14.21875 2.109375 -14.5 2.953125 -14.5 L 20.015625 -14.5 C 20.203125 -14.5 20.296875 -14.398438 20.296875 -14.203125 L 20.296875 -11.890625 C 20.296875 -11.691406 20.203125 -11.59375 20.015625 -11.59375 L 3.484375 -11.59375 C 3.328125 -11.59375 3.191406 -11.535156 3.078125 -11.421875 C 2.960938 -11.304688 2.90625 -11.171875 2.90625 -11.015625 L 2.90625 -9.28125 C 2.90625 -9.125 2.960938 -8.988281 3.078125 -8.875 C 3.191406 -8.757812 3.328125 -8.703125 3.484375 -8.703125 L 17.34375 -8.703125 C 18.195312 -8.703125 18.898438 -8.421875 19.453125 -7.859375 C 20.015625 -7.296875 20.296875 -6.585938 20.296875 -5.734375 L 20.296875 -2.953125 C 20.296875 -2.109375 20.015625 -1.40625 19.453125 -0.84375 C 18.898438 -0.28125 18.195312 0 17.34375 0 Z M 0.296875 0 "/></g></g></g><g fill="#ffffff" fill-opacity="1"><g transform="translate(209.236611, 253.557523)"><g/></g></g><g fill="#ffffff" fill-opacity="1"><g transform="translate(217.934269, 253.557523)"><g><path d="M 0.296875 0 C 0.0976562 0 0 -0.0976562 0 -0.296875 L 0 -11.546875 C 0 -12.390625 0.28125 -13.09375 0.84375 -13.65625 C 1.40625 -14.21875 2.109375 -14.5 2.953125 -14.5 L 17.34375 -14.5 C 18.195312 -14.5 18.898438 -14.21875 19.453125 -13.65625 C 20.015625 -13.09375 20.296875 -12.390625 20.296875 -11.546875 L 20.296875 -0.296875 C 20.296875 -0.0976562 20.203125 0 20.015625 0 L 17.6875 0 C 17.5 0 17.40625 -0.0976562 17.40625 -0.296875 L 17.40625 -5.796875 L 2.90625 -5.796875 L 2.90625 -0.296875 C 2.90625 -0.0976562 2.804688 0 2.609375 0 Z M 2.90625 -8.703125 L 17.40625 -8.703125 L 17.40625 -11.015625 C 17.40625 -11.171875 17.34375 -11.304688 17.21875 -11.421875 C 17.101562 -11.535156 16.96875 -11.59375 16.8125 -11.59375 L 3.484375 -11.59375 C 3.328125 -11.59375 3.191406 -11.535156 3.078125 -11.421875 C 2.960938 -11.304688 2.90625 -11.171875 2.90625 -11.015625 Z M 2.90625 -8.703125 "/></g></g></g><g fill="#ffffff" fill-opacity="1"><g transform="translate(241.128008, 253.557523)"><g><path d="M 2.953125 0 C 2.109375 0 1.40625 -0.28125 0.84375 -0.84375 C 0.28125 -1.40625 0 -2.109375 0 -2.953125 L 0 -14.203125 C 0 -14.398438 0.0976562 -14.5 0.296875 -14.5 L 2.609375 -14.5 C 2.804688 -14.5 2.90625 -14.398438 2.90625 -14.203125 L 2.90625 -3.484375 C 2.90625 -3.328125 2.960938 -3.191406 3.078125 -3.078125 C 3.191406 -2.960938 3.328125 -2.90625 3.484375 -2.90625 L 16.8125 -2.90625 C 16.96875 -2.90625 17.101562 -2.960938 17.21875 -3.078125 C 17.34375 -3.191406 17.40625 -3.328125 17.40625 -3.484375 L 17.40625 -14.203125 C 17.40625 -14.398438 17.5 -14.5 17.6875 -14.5 L 20.015625 -14.5 C 20.203125 -14.5 20.296875 -14.398438 20.296875 -14.203125 L 20.296875 -2.953125 C 20.296875 -2.109375 20.015625 -1.40625 19.453125 -0.84375 C 18.898438 -0.28125 18.195312 0 17.34375 0 Z M 2.953125 0 "/></g></g></g><g fill="#ffffff" fill-opacity="1"><g transform="translate(264.321748, 253.557523)"><g><path d="M 8.984375 0 C 8.796875 0 8.703125 -0.0976562 8.703125 -0.296875 L 8.703125 -11.59375 L 0.296875 -11.59375 C 0.0976562 -11.59375 0 -11.691406 0 -11.890625 L 0 -14.203125 C 0 -14.398438 0.0976562 -14.5 0.296875 -14.5 L 20.015625 -14.5 C 20.203125 -14.5 20.296875 -14.398438 20.296875 -14.203125 L 20.296875 -11.890625 C 20.296875 -11.691406 20.203125 -11.59375 20.015625 -11.59375 L 11.59375 -11.59375 L 11.59375 -0.296875 C 11.59375 -0.0976562 11.5 0 11.3125 0 Z M 8.984375 0 "/></g></g></g><g fill="#ffffff" fill-opacity="1"><g transform="translate(287.515487, 253.557523)"><g><path d="M 2.953125 0 C 2.109375 0 1.40625 -0.28125 0.84375 -0.84375 C 0.28125 -1.40625 0 -2.109375 0 -2.953125 L 0 -11.546875 C 0 -12.390625 0.28125 -13.09375 0.84375 -13.65625 C 1.40625 -14.21875 2.109375 -14.5 2.953125 -14.5 L 17.34375 -14.5 C 18.195312 -14.5 18.898438 -14.21875 19.453125 -13.65625 C 20.015625 -13.09375 20.296875 -12.390625 20.296875 -11.546875 L 20.296875 -2.953125 C 20.296875 -2.109375 20.015625 -1.40625 19.453125 -0.84375 C 18.898438 -0.28125 18.195312 0 17.34375 0 Z M 3.484375 -2.90625 L 16.8125 -2.90625 C 16.96875 -2.90625 17.101562 -2.960938 17.21875 -3.078125 C 17.34375 -3.191406 17.40625 -3.328125 17.40625 -3.484375 L 17.40625 -11.015625 C 17.40625 -11.171875 17.34375 -11.304688 17.21875 -11.421875 C 17.101562 -11.535156 16.96875 -11.59375 16.8125 -11.59375 L 3.484375 -11.59375 C 3.328125 -11.59375 3.191406 -11.535156 3.078125 -11.421875 C 2.960938 -11.304688 2.90625 -11.171875 2.90625 -11.015625 L 2.90625 -3.484375 C 2.90625 -3.328125 2.960938 -3.191406 3.078125 -3.078125 C 3.191406 -2.960938 3.328125 -2.90625 3.484375 -2.90625 Z M 3.484375 -2.90625 "/></g></g></g><g fill="#ffffff" fill-opacity="1"><g transform="translate(104.832537, 269.582032)"><g><path d="M 5.6875 -0.96875 L 2.09375 -0.96875 C 2.007812 -0.96875 1.96875 -1.007812 1.96875 -1.09375 L 1.96875 -7.765625 C 1.96875 -7.847656 2.007812 -7.890625 2.09375 -7.890625 L 5.6875 -7.890625 L 5.6875 -8.859375 L 2.578125 -8.859375 C 1.679688 -8.859375 1.140625 -8.582031 0.953125 -8.03125 C 0.878906 -7.820312 0.84375 -7.582031 0.84375 -7.3125 L 0.84375 -1.546875 C 0.84375 -0.734375 1.171875 -0.242188 1.828125 -0.078125 C 2.035156 -0.0234375 2.285156 0 2.578125 0 L 5.6875 0 Z M 5.6875 -0.96875 "/></g></g></g><g fill="#ffffff" fill-opacity="1"><g transform="translate(122.267006, 269.582032)"><g><path d="M 7.171875 0 L 4.984375 -8.859375 L 3.828125 -8.890625 C 3.273438 -8.890625 2.898438 -8.769531 2.703125 -8.53125 C 2.578125 -8.363281 2.445312 -8.050781 2.3125 -7.59375 L 0.1875 0 L 1.1875 0 L 1.8125 -2.34375 L 5.515625 -2.34375 L 6.09375 0 Z M 3.3125 -7.8125 C 3.332031 -7.882812 3.375 -7.925781 3.4375 -7.9375 L 4.171875 -7.9375 L 5.3125 -3.265625 L 2.0625 -3.265625 Z M 3.3125 -7.8125 "/></g></g></g><g fill="#ffffff" fill-opacity="1"><g transform="translate(141.026757, 269.582032)"><g><path d="M 2.109375 0 L 2.09375 -3.640625 L 4.34375 -3.640625 C 4.457031 -3.628906 4.535156 -3.578125 4.578125 -3.484375 L 5.78125 0 L 6.859375 0 L 5.84375 -2.90625 C 5.707031 -3.289062 5.550781 -3.5625 5.375 -3.71875 C 6.175781 -3.914062 6.582031 -4.46875 6.59375 -5.375 L 6.59375 -7.203125 C 6.570312 -8.347656 5.953125 -8.914062 4.734375 -8.90625 L 1.03125 -8.859375 L 1.03125 0 Z M 5.3125 -7.984375 C 5.414062 -7.960938 5.472656 -7.898438 5.484375 -7.796875 L 5.484375 -4.734375 C 5.460938 -4.617188 5.40625 -4.554688 5.3125 -4.546875 L 2.09375 -4.546875 L 2.09375 -7.984375 Z M 5.3125 -7.984375 "/></g></g></g><g fill="#ffffff" fill-opacity="1"><g transform="translate(159.842314, 269.582032)"><g/></g></g><g fill="#ffffff" fill-opacity="1"><g transform="translate(174.0682, 269.582032)"><g><path d="M 2.109375 0 L 2.09375 -3.640625 L 4.34375 -3.640625 C 4.457031 -3.628906 4.535156 -3.578125 4.578125 -3.484375 L 5.78125 0 L 6.859375 0 L 5.84375 -2.90625 C 5.707031 -3.289062 5.550781 -3.5625 5.375 -3.71875 C 6.175781 -3.914062 6.582031 -4.46875 6.59375 -5.375 L 6.59375 -7.203125 C 6.570312 -8.347656 5.953125 -8.914062 4.734375 -8.90625 L 1.03125 -8.859375 L 1.03125 0 Z M 5.3125 -7.984375 C 5.414062 -7.960938 5.472656 -7.898438 5.484375 -7.796875 L 5.484375 -4.734375 C 5.460938 -4.617188 5.40625 -4.554688 5.3125 -4.546875 L 2.09375 -4.546875 L 2.09375 -7.984375 Z M 5.3125 -7.984375 "/></g></g></g><g fill="#ffffff" fill-opacity="1"><g transform="translate(192.883751, 269.582032)"><g><path d="M 5.921875 0 L 5.921875 -0.9375 L 2.078125 -0.9375 L 2.078125 -4.046875 L 5.625 -4.046875 L 5.625 -4.96875 L 2.078125 -4.96875 L 2.078125 -7.921875 L 5.859375 -7.921875 L 5.859375 -8.859375 L 1 -8.859375 L 1 0 Z M 5.921875 0 "/></g></g></g><g fill="#ffffff" fill-opacity="1"><g transform="translate(210.722777, 269.582032)"><g><path d="M 2.109375 0 L 2.09375 -3.453125 L 4.734375 -3.453125 C 5.953125 -3.472656 6.566406 -4.046875 6.578125 -5.171875 L 6.578125 -7.203125 C 6.566406 -8.347656 5.953125 -8.914062 4.734375 -8.90625 L 1.03125 -8.859375 L 1.03125 0 Z M 5.296875 -7.984375 C 5.398438 -7.960938 5.457031 -7.898438 5.46875 -7.796875 L 5.46875 -4.5625 C 5.445312 -4.445312 5.390625 -4.382812 5.296875 -4.375 L 2.09375 -4.375 L 2.09375 -7.984375 Z M 5.296875 -7.984375 "/></g></g></g><g fill="#ffffff" fill-opacity="1"><g transform="translate(229.119817, 269.582032)"><g><path d="M 7.171875 0 L 4.984375 -8.859375 L 3.828125 -8.890625 C 3.273438 -8.890625 2.898438 -8.769531 2.703125 -8.53125 C 2.578125 -8.363281 2.445312 -8.050781 2.3125 -7.59375 L 0.1875 0 L 1.1875 0 L 1.8125 -2.34375 L 5.515625 -2.34375 L 6.09375 0 Z M 3.3125 -7.8125 C 3.332031 -7.882812 3.375 -7.925781 3.4375 -7.9375 L 4.171875 -7.9375 L 5.3125 -3.265625 L 2.0625 -3.265625 Z M 3.3125 -7.8125 "/></g></g></g><g fill="#ffffff" fill-opacity="1"><g transform="translate(247.879565, 269.582032)"><g><path d="M 2.265625 0 L 2.265625 -8.859375 L 1.203125 -8.859375 L 1.203125 0 Z M 2.265625 0 "/></g></g></g><g fill="#ffffff" fill-opacity="1"><g transform="translate(262.775068, 269.582032)"><g><path d="M 2.109375 0 L 2.09375 -3.640625 L 4.34375 -3.640625 C 4.457031 -3.628906 4.535156 -3.578125 4.578125 -3.484375 L 5.78125 0 L 6.859375 0 L 5.84375 -2.90625 C 5.707031 -3.289062 5.550781 -3.5625 5.375 -3.71875 C 6.175781 -3.914062 6.582031 -4.46875 6.59375 -5.375 L 6.59375 -7.203125 C 6.570312 -8.347656 5.953125 -8.914062 4.734375 -8.90625 L 1.03125 -8.859375 L 1.03125 0 Z M 5.3125 -7.984375 C 5.414062 -7.960938 5.472656 -7.898438 5.484375 -7.796875 L 5.484375 -4.734375 C 5.460938 -4.617188 5.40625 -4.554688 5.3125 -4.546875 L 2.09375 -4.546875 L 2.09375 -7.984375 Z M 5.3125 -7.984375 "/></g></g></g></svg>